<svg xmlns="http://www.w3.org/2000/svg" width="160" height="40" viewBox="0 0 160 40" fill="none"><path d="M34.4108 27.2994C34.4108 27.3163 34.3941 27.3332 34.3941 27.3501C33.5079 29.3142 31.9864 30.9057 30.1304 31.9724C29.2442 32.4804 28.4583 33.1576 27.7226 33.9026C25.1644 36.4762 21.72 37.9831 18.1083 38C18.0749 38 18.0582 38 18.0247 38C17.8241 38 17.6234 38 17.4228 37.9831C17.8074 37.8815 18.309 37.7291 18.844 37.5429C18.8775 37.5429 18.8942 37.5259 18.9276 37.5259C19.9978 37.2381 20.9174 36.7471 21.7701 36.1206C25.666 33.2423 27.7226 27.6041 32.9729 26.8591C33.3575 26.8083 33.7253 26.7745 34.1099 26.7914C34.344 26.7745 34.5112 27.0623 34.4108 27.2994ZM35.3305 19.8834C34.5279 19.7649 33.742 19.7479 32.9394 19.8665C26.5689 20.7808 24.8969 28.9248 18.8942 30.5332C17.0048 31.0412 14.8478 31.2105 13.9784 29.111C13.6272 28.2644 13.9449 27.2824 13.9784 26.3512C13.9784 26.3343 13.9951 26.3343 13.9951 26.3512C14.8813 28.383 17.0048 28.2136 18.8775 27.7057C24.8801 26.0803 26.5355 17.9532 32.9227 17.0389C33.023 17.022 33.1066 17.022 33.207 17.0051C34.5948 16.8696 35.5478 15.4812 35.1131 14.1437C35.1131 14.1267 35.0964 14.1098 35.0964 14.0929C34.8456 13.2971 34.0597 12.7722 33.2404 12.8569C33.1234 12.8738 33.023 12.8738 32.9227 12.8907C26.5522 13.805 24.8801 21.949 18.8775 23.5575C16.9881 24.0655 14.8311 24.2348 13.9616 22.1353C13.6105 21.2887 13.9282 20.3067 13.9616 19.3755C13.9616 19.3585 13.9784 19.3585 13.9784 19.3755C14.8645 21.4072 16.9881 21.2379 18.8608 20.73C24.8634 19.1215 26.5188 10.9775 32.906 10.0632C32.9394 10.0632 32.9729 10.0632 32.9896 10.0463H33.0063C33.1568 10.0293 33.1401 9.96159 33.0732 9.86001C33.0732 9.86001 33.0732 9.86001 33.0732 9.84307C31.6687 7.81131 28.7259 7.62506 27.0538 9.45365C24.5625 12.1796 22.5226 15.5828 18.8608 16.5648C16.9713 17.0728 14.8144 17.2421 13.9449 15.1426C13.5938 14.296 13.9115 13.314 13.9449 12.3828C13.9449 12.3659 13.9616 12.3659 13.9616 12.3828C14.8478 14.4146 16.9713 14.2452 18.844 13.7373C22.8904 12.6537 24.9637 8.59015 27.8397 5.77954C28.241 5.39011 28.1741 4.74672 27.7226 4.44196C26.8364 3.86629 25.6827 4.0356 24.9972 4.84831C23.275 6.91394 21.4692 8.87798 18.844 9.5891C16.9546 10.097 14.7977 10.2664 13.9282 8.16687C13.5771 7.3203 13.8948 6.33827 13.9282 5.40705C13.9282 5.39011 13.9449 5.39011 13.9449 5.40705C14.8311 7.43881 16.9546 7.2695 18.8273 6.76156C20.5328 6.30441 21.8705 5.32239 23.0911 4.13719C23.7432 3.4938 23.4422 2.37633 22.556 2.15622C22.5226 2.15622 22.4891 2.13929 22.4557 2.13929C21.5695 1.90225 20.6164 1.96997 19.7637 2.32553C19.4627 2.44405 19.145 2.56257 18.8273 2.64723C17.9411 2.88427 16.9881 3.05358 16.152 2.93506C15.4665 2.88427 14.9816 2.74882 14.6472 2.59643C14.3128 2.44405 13.9282 2.66416 13.8948 3.03665C13.8446 3.47687 13.7777 3.90015 13.761 4.34037C13.7276 4.27264 13.6941 4.18799 13.6607 4.12026L13.644 4.10333C13.0922 2.98586 11.7713 2.59643 10.6677 3.10438C8.57763 4.05253 6.70493 5.39011 5.11648 7.03246C4.84895 7.45575 4.5647 7.82824 4.26373 8.14993C3.76212 8.79333 3.2605 9.41979 2.75889 10.0632C2.15695 11.0452 1.63861 12.078 1.2206 13.1616C1.07011 13.568 1.42124 13.9743 1.83926 13.8558C3.22706 13.4664 4.51454 12.3828 5.51777 10.5034C6.88886 7.94676 11.5037 4.3573 13.7276 8.21766C14.2626 9.14889 13.8613 10.2494 13.8279 11.2822C13.7944 11.2145 13.761 11.1299 13.7276 11.0621C11.5037 7.20178 6.88886 10.7912 5.51777 13.3479C4.53126 15.1765 3.2605 16.2601 1.90614 16.6664C0.836026 16.9881 0.0501616 17.9532 0.0167205 19.0876C0.0167205 19.3077 0 19.5278 0 19.7649C0 19.7649 0 19.7649 0 19.7818C0 20.5268 0.685542 21.0855 1.40452 20.9501C2.95953 20.6622 4.3975 19.5617 5.51777 17.4961C6.88886 14.9394 11.5037 11.35 13.7276 15.2103C14.2626 16.1416 13.8613 17.2421 13.8279 18.2749C13.7944 18.2072 13.761 18.1225 13.7276 18.0548C11.5037 14.1775 6.88886 17.767 5.51777 20.3236C4.44766 22.3046 3.05986 23.4051 1.57173 23.7438C0.969791 23.8792 0.601939 24.4887 0.785865 25.0813C0.95307 25.6231 1.137 26.148 1.33764 26.6729C1.62189 27.384 2.47464 27.638 3.12674 27.2316C4.01293 26.656 4.83223 25.7417 5.51777 24.4718C6.88886 21.9152 11.5037 18.3257 13.7276 22.1861C14.2626 23.1173 13.8613 24.2178 13.8279 25.2507C13.7944 25.1829 13.761 25.0983 13.7276 25.0305C11.5037 21.1702 6.90558 24.7596 5.51777 27.3163C4.99944 28.2814 4.3975 29.0433 3.76212 29.602C3.42771 29.8899 3.37755 30.4147 3.64508 30.7703C3.86244 31.0581 4.07981 31.329 4.29718 31.5999C4.63159 31.9894 5.26697 31.9386 5.51777 31.4814C5.51777 31.4814 5.51777 31.4814 5.51777 31.4645C6.88886 28.9078 11.5037 25.3184 13.7276 29.1787C14.2626 30.11 13.8613 31.2105 13.8279 32.2433C13.7944 32.1756 13.761 32.0909 13.7276 32.0232C11.9385 28.9248 8.61107 30.6348 6.65477 32.7513C6.32036 33.1068 6.3538 33.6994 6.73837 34.0042C6.97246 34.1904 7.22327 34.3936 7.47408 34.5629C8.0593 34.9862 8.84516 35.0878 9.51398 34.8169C11.0355 34.1904 12.624 34.309 13.6941 36.1037C13.6941 36.1206 13.7108 36.1037 13.7108 36.1037C13.761 35.6635 13.8279 35.1894 13.8613 34.7492C13.8948 34.292 13.9951 33.8179 14.0118 33.3608C14.0118 33.3439 14.0285 33.3439 14.0285 33.3608C14.9147 35.3926 17.0382 35.2232 18.9109 34.7153C24.9136 33.1068 26.5689 24.9628 32.9562 24.0485L33.0398 24.0316C34.6784 23.7946 35.9157 22.4231 35.9993 20.7638C35.9993 20.7469 35.9993 20.7469 35.9993 20.73C36.016 20.2898 35.7318 19.9511 35.3305 19.8834Z" fill="url(#paint0_linear_531_3)"></path><path d="M51.9075 28.7275C50.627 28.7275 49.4449 28.5139 48.3473 28.1009C47.2638 27.6737 46.321 27.0898 45.5189 26.3207C44.7168 25.5517 44.1117 24.6545 43.6614 23.6291C43.2252 22.6037 43.0001 21.4786 43.0001 20.2538C43.0001 19.0291 43.2252 17.904 43.6614 16.8786C44.0977 15.8532 44.7168 14.9418 45.533 14.187C46.3351 13.4179 47.2779 12.834 48.3614 12.4068C49.4449 11.9795 50.6129 11.7802 51.8794 11.7802C53.1599 11.7802 54.3419 11.9938 55.4114 12.4068C56.4808 12.834 57.4236 13.4179 58.2117 14.187C59.0138 14.956 59.6329 15.8532 60.0832 16.8644C60.5335 17.8898 60.7587 19.0148 60.7587 20.2538C60.7587 21.4786 60.5335 22.6037 60.0832 23.6433C59.6329 24.683 59.0138 25.5802 58.2117 26.335C57.4096 27.0898 56.4808 27.6879 55.4114 28.1009C54.3419 28.5139 53.174 28.7275 51.9075 28.7275ZM51.8794 25.4947C52.6111 25.4947 53.2725 25.3665 53.8776 25.1244C54.4826 24.8681 55.0174 24.5121 55.4817 24.0421C55.9461 23.5721 56.2979 23.0167 56.5653 22.3758C56.8186 21.735 56.9452 21.0229 56.9452 20.2396C56.9452 19.4563 56.8186 18.7443 56.5653 18.1034C56.312 17.4625 55.9602 16.9071 55.4958 16.4371C55.0455 15.9672 54.4967 15.6111 53.8916 15.3548C53.2725 15.0984 52.597 14.9845 51.8794 14.9845C51.1476 14.9845 50.4863 15.1127 49.8812 15.3548C49.2761 15.6111 48.7414 15.9672 48.277 16.4371C47.8126 16.9071 47.4608 17.4625 47.1935 18.1034C46.9402 18.7443 46.8135 19.4563 46.8135 20.2396C46.8135 21.0086 46.9402 21.7065 47.1935 22.3616C47.4467 23.0167 47.7985 23.5721 48.2629 24.0421C48.7132 24.5121 49.2479 24.8681 49.8671 25.1244C50.4863 25.3665 51.1476 25.4947 51.8794 25.4947Z" fill="url(#paint1_linear_531_3)"></path><path d="M63.3198 15.839H66.7674V18.4167L66.697 22.1622L66.9221 25.8935V33H63.3198V15.839ZM70.6934 28.6279C69.638 28.6279 68.7233 28.4 67.9353 27.93C67.1473 27.4601 66.5281 26.748 66.0919 25.7796C65.6557 24.8254 65.4305 23.6006 65.4305 22.1337C65.4305 20.6526 65.6416 19.4279 66.0497 18.4737C66.4718 17.5195 67.0629 16.8074 67.8509 16.3374C68.6389 15.8675 69.5817 15.6396 70.6793 15.6396C71.8473 15.6396 72.9027 15.9102 73.8455 16.4514C74.7742 16.9926 75.52 17.7474 76.0688 18.7158C76.6176 19.6842 76.885 20.8235 76.885 22.1337C76.885 23.4582 76.6176 24.6118 76.0688 25.5802C75.52 26.5486 74.7742 27.3034 73.8455 27.8303C72.9167 28.3715 71.8613 28.6279 70.6934 28.6279ZM70.0602 25.6371C70.6652 25.6371 71.2 25.4947 71.6643 25.2099C72.1287 24.9251 72.5086 24.5263 72.8042 23.9994C73.0856 23.4724 73.2263 22.8601 73.2263 22.1337C73.2263 21.3932 73.0856 20.7808 72.8042 20.2539C72.5227 19.7412 72.1428 19.3424 71.6643 19.0576C71.2 18.7727 70.6512 18.6303 70.0602 18.6303C69.4551 18.6303 68.9203 18.7727 68.4419 19.0576C67.9635 19.3424 67.5835 19.7412 67.3021 20.2539C67.0206 20.7666 66.8799 21.3932 66.8799 22.1337C66.8799 22.8458 67.0206 23.4724 67.3021 23.9994C67.5835 24.5263 67.9635 24.9251 68.4419 25.2099C68.9203 25.4947 69.4551 25.6371 70.0602 25.6371Z" fill="url(#paint2_linear_531_3)"></path><path d="M77.8138 18.9294V16.1096H86.4539V18.9294H77.8138ZM84.3994 28.6279C82.9359 28.6279 81.7961 28.2434 80.9659 27.4886C80.1497 26.7338 79.7416 25.5944 79.7416 24.0991V13.0477H83.3581V24.0706C83.3581 24.5975 83.4988 25.0105 83.7802 25.2954C84.0617 25.5802 84.4416 25.7226 84.92 25.7226C85.497 25.7226 85.9754 25.566 86.3835 25.2526L87.3545 27.8304C86.9886 28.1009 86.5383 28.3003 86.0176 28.4285C85.497 28.5709 84.9482 28.6279 84.3994 28.6279Z" fill="url(#paint3_linear_531_3)"></path><path d="M91.182 14.0731C90.5206 14.0731 89.9718 13.8737 89.5637 13.4892C89.1416 13.1046 88.9446 12.6204 88.9446 12.0365C88.9446 11.4526 89.1556 10.9684 89.5637 10.5839C89.9859 10.1994 90.5206 10 91.182 10C91.8434 10 92.3922 10.1851 92.8002 10.5554C93.2224 10.9257 93.4194 11.3957 93.4194 11.9796C93.4194 12.592 93.2083 13.0904 92.8002 13.4892C92.4062 13.8737 91.8574 14.0731 91.182 14.0731ZM89.3808 15.839H92.9972V28.457H89.3808V15.839Z" fill="url(#paint4_linear_531_3)"></path><path d="M102.369 28.6279C101.032 28.6279 99.822 28.3573 98.7807 27.8019C97.7253 27.2464 96.9092 26.4774 96.3182 25.4947C95.7271 24.5121 95.4316 23.387 95.4316 22.148C95.4316 20.8805 95.7271 19.7554 96.3182 18.787C96.9092 17.8043 97.7394 17.0495 98.7807 16.4941C99.8361 15.9387 101.032 15.6681 102.369 15.6681C103.678 15.6681 104.818 15.9529 105.803 16.4941C106.773 17.0495 107.491 17.8471 107.956 18.8724L105.155 20.382C104.832 19.7839 104.424 19.3567 103.945 19.0718C103.453 18.787 102.932 18.6446 102.355 18.6446C101.736 18.6446 101.187 18.787 100.68 19.0718C100.188 19.3567 99.7939 19.7554 99.5124 20.2681C99.231 20.7808 99.0903 21.4074 99.0903 22.148C99.0903 22.8885 99.231 23.5009 99.5124 24.0279C99.7939 24.5406 100.188 24.9393 100.68 25.2242C101.173 25.509 101.736 25.6514 102.355 25.6514C102.932 25.6514 103.453 25.509 103.945 25.2384C104.438 24.9678 104.832 24.5263 105.155 23.9139L107.956 25.4663C107.491 26.4774 106.773 27.2607 105.803 27.8161C104.832 28.3573 103.678 28.6279 102.369 28.6279Z" fill="url(#paint5_linear_531_3)"></path><path d="M110.291 28.4427V12.0365H114.048V25.3523H122.182V28.4427H110.291Z" fill="url(#paint6_linear_531_3)"></path><path d="M127.965 28.6278C126.995 28.6278 126.164 28.4569 125.461 28.1294C124.771 27.7876 124.236 27.3319 123.857 26.7622C123.491 26.1783 123.294 25.5374 123.294 24.8111C123.294 24.0563 123.477 23.4012 123.842 22.8458C124.208 22.2761 124.785 21.8489 125.573 21.5213C126.361 21.208 127.389 21.0371 128.655 21.0371H131.962V23.1733H129.049C128.205 23.1733 127.614 23.3158 127.304 23.6006C126.98 23.8854 126.826 24.2272 126.826 24.6545C126.826 25.1244 127.009 25.4947 127.374 25.7653C127.74 26.0359 128.233 26.1783 128.866 26.1783C129.471 26.1783 130.006 26.0359 130.484 25.751C130.963 25.4662 131.315 25.039 131.526 24.4693L132.089 26.1641C131.821 26.9758 131.343 27.5882 130.653 28.0154C129.95 28.4142 129.063 28.6278 127.965 28.6278ZM131.765 28.4427V25.9789L131.54 25.4377V21.0371C131.54 20.2538 131.3 19.6414 130.836 19.2142C130.372 18.7727 129.64 18.5591 128.669 18.5591C128.008 18.5591 127.346 18.6588 126.713 18.8724C126.066 19.086 125.531 19.3709 125.081 19.7269L123.786 17.1777C124.462 16.6935 125.278 16.3232 126.235 16.0526C127.192 15.782 128.162 15.6538 129.148 15.6538C131.047 15.6538 132.525 16.1096 133.566 17.0068C134.621 17.9182 135.142 19.3281 135.142 21.2507V28.4427H131.765Z" fill="url(#paint7_linear_531_3)"></path><path d="M138.407 28.4427V11.0538H142.023V18.3882L141.798 22.1195L141.868 25.865V28.4427H138.407ZM145.78 28.6278C144.683 28.6278 143.74 28.4 142.952 27.93C142.164 27.46 141.559 26.7479 141.151 25.7795C140.729 24.8253 140.532 23.6006 140.532 22.1337C140.532 20.6526 140.757 19.4278 141.193 18.4736C141.629 17.5195 142.248 16.8074 143.036 16.3374C143.824 15.8674 144.739 15.6396 145.794 15.6396C146.962 15.6396 148.018 15.9102 148.961 16.4371C149.889 16.964 150.635 17.7188 151.184 18.6873C151.733 19.6557 152 20.8092 152 22.1337C152 23.4439 151.733 24.5832 151.184 25.5517C150.635 26.5201 149.889 27.2749 148.961 27.8161C148.004 28.3572 146.948 28.6278 145.78 28.6278ZM145.147 25.6371C145.752 25.6371 146.287 25.4947 146.751 25.2099C147.216 24.925 147.596 24.5263 147.891 23.9993C148.173 23.4724 148.313 22.86 148.313 22.1337C148.313 21.3931 148.173 20.7808 147.891 20.2538C147.61 19.7411 147.23 19.3424 146.751 19.0575C146.287 18.7727 145.738 18.6303 145.147 18.6303C144.542 18.6303 144.007 18.7727 143.529 19.0575C143.05 19.3424 142.67 19.7411 142.389 20.2538C142.108 20.7665 141.967 21.3931 141.967 22.1337C141.967 22.8458 142.108 23.4724 142.389 23.9993C142.67 24.5263 143.05 24.925 143.529 25.2099C144.007 25.4947 144.542 25.6371 145.147 25.6371Z" fill="url(#paint8_linear_531_3)"></path><defs><linearGradient id="paint0_linear_531_3" x1="0" y1="2" x2="36" y2="38" gradientUnits="userSpaceOnUse"><stop stop-color="#02CE80"></stop><stop offset="1" stop-color="#7BD706"></stop></linearGradient><linearGradient id="paint1_linear_531_3" x1="43.0001" y1="10" x2="52.2927" y2="54.0392" gradientUnits="userSpaceOnUse"><stop stop-color="#02CE80"></stop><stop offset="1" stop-color="#7BD706"></stop></linearGradient><linearGradient id="paint2_linear_531_3" x1="43.0001" y1="10" x2="52.2927" y2="54.0392" gradientUnits="userSpaceOnUse"><stop stop-color="#02CE80"></stop><stop offset="1" stop-color="#7BD706"></stop></linearGradient><linearGradient id="paint3_linear_531_3" x1="43.0001" y1="10" x2="52.2927" y2="54.0392" gradientUnits="userSpaceOnUse"><stop stop-color="#02CE80"></stop><stop offset="1" stop-color="#7BD706"></stop></linearGradient><linearGradient id="paint4_linear_531_3" x1="43.0001" y1="10" x2="52.2927" y2="54.0392" gradientUnits="userSpaceOnUse"><stop stop-color="#02CE80"></stop><stop offset="1" stop-color="#7BD706"></stop></linearGradient><linearGradient id="paint5_linear_531_3" x1="43.0001" y1="10" x2="52.2927" y2="54.0392" gradientUnits="userSpaceOnUse"><stop stop-color="#02CE80"></stop><stop offset="1" stop-color="#7BD706"></stop></linearGradient><linearGradient id="paint6_linear_531_3" x1="43.0001" y1="10" x2="52.2927" y2="54.0392" gradientUnits="userSpaceOnUse"><stop stop-color="#02CE80"></stop><stop offset="1" stop-color="#7BD706"></stop></linearGradient><linearGradient id="paint7_linear_531_3" x1="43.0001" y1="10" x2="52.2927" y2="54.0392" gradientUnits="userSpaceOnUse"><stop stop-color="#02CE80"></stop><stop offset="1" stop-color="#7BD706"></stop></linearGradient><linearGradient id="paint8_linear_531_3" x1="43.0001" y1="10" x2="52.2927" y2="54.0392" gradientUnits="userSpaceOnUse"><stop stop-color="#02CE80"></stop><stop offset="1" stop-color="#7BD706"></stop></linearGradient></defs></svg>