<svg xmlns="http://www.w3.org/2000/svg" width="160" height="40" viewBox="0 0 160 40" fill="none"><path d="M138.814 29.8693L143.577 23.1105L139.047 16.6281H143.266L145.959 20.799L148.599 16.6281H152.689L148.133 23.1859L153 29.8693H148.78L145.803 25.5226L142.852 29.8693H138.814Z" fill="url(#paint0_linear_531_18)"></path><path d="M131.206 30.0452C129.826 30.0452 128.618 29.7772 127.582 29.2412C126.547 28.6884 125.744 27.9096 125.175 26.9045C124.605 25.8828 124.32 24.6767 124.32 23.2864C124.32 21.8627 124.605 20.6399 125.175 19.6181C125.761 18.5796 126.572 17.7839 127.608 17.2312C128.643 16.6784 129.834 16.402 131.18 16.402C132.561 16.402 133.761 16.6868 134.779 17.2563C135.797 17.8258 136.591 18.6215 137.16 19.6432C137.73 20.665 138.015 21.8878 138.015 23.3116C138.015 24.7019 137.73 25.9079 137.16 26.9297C136.608 27.9347 135.823 28.7052 134.805 29.2412C133.804 29.7772 132.604 30.0452 131.206 30.0452ZM131.155 26.8292C131.948 26.8292 132.587 26.6617 133.07 26.3266C133.553 25.9916 133.899 25.5561 134.106 25.0201C134.33 24.4673 134.442 23.8895 134.442 23.2864C134.442 22.6834 134.33 22.1055 134.106 21.5528C133.899 21 133.553 20.5478 133.07 20.196C132.604 19.8275 131.966 19.6432 131.155 19.6432C130.378 19.6432 129.748 19.8275 129.265 20.196C128.782 20.5478 128.428 21 128.203 21.5528C127.996 22.1055 127.893 22.6834 127.893 23.2864C127.893 23.9062 127.996 24.4841 128.203 25.0201C128.428 25.5561 128.782 25.9916 129.265 26.3266C129.748 26.6617 130.378 26.8292 131.155 26.8292Z" fill="url(#paint1_linear_531_18)"></path><path d="M116.45 30.0452C116.001 30.0452 115.527 30.0033 115.026 29.9196C114.543 29.8358 114.06 29.6767 113.576 29.4422C113.11 29.1909 112.67 28.8392 112.256 28.3869L112.23 29.8693H108.684V12.0804H112.308V18.1859C112.826 17.5829 113.464 17.139 114.224 16.8542C115 16.5527 115.803 16.402 116.631 16.402C117.977 16.402 119.082 16.7035 119.945 17.3065C120.808 17.8928 121.446 18.6968 121.86 19.7186C122.292 20.7403 122.508 21.9129 122.508 23.2361C122.508 24.5259 122.292 25.6901 121.86 26.7286C121.429 27.7504 120.764 28.5628 119.867 29.1658C118.987 29.7521 117.848 30.0452 116.45 30.0452ZM115.673 26.9045C116.519 26.9045 117.175 26.7202 117.641 26.3517C118.107 25.9832 118.435 25.5142 118.624 24.9447C118.814 24.3752 118.909 23.7805 118.909 23.1608C118.909 22.541 118.806 21.9631 118.599 21.4271C118.391 20.8743 118.046 20.4388 117.563 20.1206C117.097 19.7856 116.467 19.6181 115.673 19.6181C114.948 19.6181 114.327 19.7939 113.809 20.1457C113.309 20.4807 112.929 20.9246 112.67 21.4774C112.411 22.0301 112.282 22.6248 112.282 23.2613C112.282 23.8978 112.394 24.5008 112.619 25.0703C112.86 25.6231 113.231 26.067 113.732 26.402C114.232 26.737 114.879 26.9045 115.673 26.9045Z" fill="url(#paint2_linear_531_18)"></path><path d="M105.391 29.8693C104.252 29.8693 103.294 29.7353 102.517 29.4673C101.758 29.1993 101.18 28.7471 100.783 28.1106C100.403 27.4573 100.213 26.5695 100.213 25.4472V19.7689H98.1939V16.6282H100.213V13.0854H103.837V16.6282H106.814V19.7689H103.837V24.9447C103.837 25.4975 103.941 25.933 104.148 26.2513C104.355 26.5695 104.821 26.7286 105.546 26.7286H106.685V29.8693H105.391Z" fill="url(#paint3_linear_531_18)"></path><path d="M83.5295 29.8693V12.0804H87.1537V18.1608C87.5507 17.7085 87.9908 17.3568 88.474 17.1055C88.9745 16.8542 89.475 16.6784 89.9755 16.5779C90.4932 16.4606 90.9678 16.402 91.3993 16.402C92.6764 16.402 93.6774 16.6784 94.4022 17.2311C95.127 17.7839 95.6448 18.5293 95.9554 19.4673C96.2661 20.4053 96.4214 21.4355 96.4214 22.5578V29.8693H92.7972V23.0603C92.7972 22.6583 92.754 22.2562 92.6678 21.8542C92.5987 21.4522 92.4693 21.0837 92.2794 20.7487C92.0896 20.397 91.8221 20.1206 91.4769 19.9196C91.1318 19.7018 90.6744 19.5929 90.1049 19.5929C89.5699 19.5929 89.1126 19.7018 88.7329 19.9196C88.3532 20.1373 88.0425 20.4305 87.8009 20.799C87.5766 21.1507 87.4126 21.5444 87.3091 21.9799C87.2055 22.4154 87.1537 22.8509 87.1537 23.2864V29.8693H83.5295Z" fill="url(#paint4_linear_531_18)"></path><path d="M73.9253 36C72.8553 36 71.8716 35.8325 70.9742 35.4975C70.0767 35.1792 69.3174 34.6683 68.6961 33.9648C68.0748 33.2613 67.6519 32.3568 67.4276 31.2513H71.1295C71.2503 31.5863 71.4401 31.8627 71.699 32.0804C71.9751 32.3149 72.303 32.4908 72.6827 32.608C73.0797 32.7253 73.4939 32.7839 73.9253 32.7839C74.7364 32.7839 75.3664 32.6164 75.8151 32.2814C76.2638 31.9464 76.5744 31.5025 76.747 30.9498C76.9196 30.4137 77.0059 29.8191 77.0059 29.1658V28.2362C76.6953 28.722 76.3069 29.0905 75.841 29.3417C75.375 29.593 74.8831 29.7688 74.3654 29.8694C73.8649 29.9866 73.3817 30.0452 72.9157 30.0452C71.4833 30.0452 70.3183 29.7353 69.4209 29.1156C68.5235 28.4958 67.8677 27.6834 67.4535 26.6784C67.0393 25.6566 66.8322 24.5595 66.8322 23.3869C66.8322 22.0972 67.0652 20.9246 67.5311 19.8694C67.9971 18.8141 68.6961 17.9766 69.628 17.3568C70.56 16.737 71.7249 16.4272 73.1228 16.4272C73.9685 16.4272 74.7192 16.5612 75.375 16.8292C76.0308 17.0804 76.5917 17.4573 77.0577 17.9598L77.3683 16.6282H80.6819V28.1859C80.6819 29.794 80.4662 31.1759 80.0347 32.3317C79.6033 33.5042 78.887 34.4087 77.8861 35.0452C76.9024 35.6817 75.5821 36 73.9253 36ZM73.7182 26.8794C74.4776 26.8794 75.0989 26.7119 75.5821 26.3769C76.0826 26.0419 76.4536 25.598 76.6953 25.0452C76.9369 24.4757 77.0577 23.8643 77.0577 23.2111C77.0577 22.5243 76.9369 21.9129 76.6953 21.3769C76.4536 20.8241 76.0912 20.3886 75.608 20.0704C75.1248 19.7354 74.5035 19.5679 73.7441 19.5679C72.9157 19.5679 72.2599 19.7605 71.7767 20.1457C71.2934 20.5143 70.9483 20.9833 70.7412 21.5528C70.5513 22.1055 70.4564 22.6918 70.4564 23.3116C70.4564 23.9481 70.56 24.5427 70.7671 25.0955C70.9742 25.6315 71.3193 26.067 71.8025 26.402C72.2858 26.7203 72.9243 26.8794 73.7182 26.8794Z" fill="url(#paint5_linear_531_18)"></path><path d="M60.8528 29.8693V16.6281H64.477V29.8693H60.8528ZM62.6649 15.2965C61.9919 15.2965 61.4482 15.1038 61.034 14.7186C60.6198 14.3166 60.4127 13.8057 60.4127 13.1859C60.4127 12.5327 60.6285 12.005 61.0599 11.603C61.4914 11.201 62.035 11 62.6908 11C63.2949 11 63.8126 11.201 64.2441 11.603C64.6928 11.9883 64.9171 12.5075 64.9171 13.1608C64.9171 13.7973 64.7014 14.3166 64.2699 14.7186C63.8557 15.1038 63.3207 15.2965 62.6649 15.2965Z" fill="url(#paint6_linear_531_18)"></path><path d="M46 29.8693V12.0804H49.7019V26.5527H58.9954V29.8693H46Z" fill="url(#paint7_linear_531_18)"></path><path d="M17.6146 34.8378C15.7289 33.6727 13.8433 32.5659 11.914 31.4865C9.53432 30.1535 8.3411 29.4853 7.63862 28.2483H7.63526C6.9395 27.0181 6.96975 25.6303 7.02689 22.8581C7.0437 22.0186 7.06386 21.0249 7.06386 19.5C7.06386 17.9717 7.0437 16.9814 7.02689 16.1419C6.96975 13.3731 6.9395 11.9853 7.63862 10.7551C8.3411 9.51469 9.53096 8.84991 11.914 7.51351C12.7711 7.03378 13.7862 6.46495 14.7845 5.87556V5.87214C16.0079 5.15254 16.8818 4.61455 17.6146 4.1588C19.9472 2.7196 21.1135 2 22.5017 2C23.8898 2 25.0562 2.7196 27.3888 4.16223C27.977 4.52546 28.6492 4.94008 29.429 5.40954C30.2256 5.76934 31.1432 6.33816 32.3969 7.11259L32.6759 7.28392L33.0893 7.51351C35.469 8.84648 36.6589 9.51469 37.3614 10.7517H37.3647C38.0605 11.9819 38.0336 13.3628 37.9765 16.1247C38.0067 17.5879 38.0269 18.6639 37.9395 19.5343C37.9395 21.042 37.9597 22.0255 37.9765 22.8581C38.0336 25.6303 38.0639 27.0147 37.3647 28.2449C36.6623 29.4853 35.4724 30.1501 33.0893 31.4865C32.2322 31.9662 31.2172 32.535 30.2189 33.1244V33.1279C28.9954 33.8475 28.1215 34.3855 27.3888 34.8412C25.0562 36.2804 23.8898 37.0034 22.5017 37.0034C20.8581 37 18.9792 35.6807 17.6146 34.8378ZM35.6438 16.2275C34.9884 16.6627 34.1515 17.1287 33.0893 17.725C32.2759 18.1807 31.3113 18.7221 30.2189 19.3629C28.9954 20.0825 28.1215 20.6205 27.3888 21.0763C25.3654 22.327 24.236 23.026 23.0428 23.1974C21.8362 23.3721 20.8816 23.0158 19.3792 22.1454C19.3993 23.1494 19.4229 24.3179 19.4229 25.3939C19.4229 25.7297 19.4195 26.0724 19.4161 26.415C22.5118 28.3134 22.7101 28.1935 26.1822 26.0484C27.0224 25.5309 28.014 24.9176 29.0492 24.3076C30.2189 23.6189 31.1668 23.0877 31.9667 22.6423C33.3717 21.8541 35.3548 21.1928 35.6001 19.4589C35.6001 18.3829 35.6203 17.2247 35.6438 16.2275ZM19.3624 19.3835C21.1303 20.4732 21.9841 20.9495 22.7202 20.8433C23.4428 20.7405 24.4243 20.1339 26.1788 19.0511C27.0191 18.5337 28.0106 17.9203 29.0459 17.3104C30.2156 16.6216 31.1634 16.0905 31.9634 15.645C34.4775 14.2366 35.3346 13.7569 35.5665 12.6055C35.3615 11.5193 34.4237 10.9162 33.4523 10.529C32.1886 10.0253 31.402 10.5118 28.8375 12.095C27.9972 12.6124 27.0056 13.2258 25.9704 13.8357C24.8007 14.5245 23.8529 15.0556 23.0529 15.5011C21.0497 16.625 20.0447 17.187 19.6749 17.8449H19.6716C19.48 18.1842 19.3926 18.6673 19.3624 19.3835ZM35.6506 23.2145C34.9951 23.66 34.1616 24.126 33.086 24.7291C32.2726 25.1848 31.3079 25.7263 30.2156 26.367C28.9921 27.0866 28.1182 27.6246 27.3855 28.0804C23.1706 30.6846 22.5891 31.041 19.3657 29.1495C19.3019 32.3569 19.3422 33.0559 20.9656 34.0908C21.6177 34.4403 22.0916 34.615 22.4983 34.615C23.2512 34.615 24.2293 34.0119 26.1788 32.8092C27.0191 32.2918 28.0106 31.6784 29.0459 31.0684H29.0492C30.3097 30.3248 31.2071 29.8246 31.96 29.4031C33.9666 28.2791 34.9716 27.7172 35.338 27.0661C35.701 26.4322 35.6942 25.3425 35.6506 23.2145ZM17.0364 31.7161C17.0028 30.9279 17.023 29.9685 17.0465 28.7554C17.0633 27.9159 17.0835 26.9256 17.0835 25.3973C17.0835 23.869 17.0633 22.8787 17.0465 22.0392C16.9894 19.267 16.9591 17.8826 17.6582 16.6524V16.649C18.3574 15.4154 19.5472 14.7472 21.9336 13.4142C22.747 12.9585 23.7117 12.4171 24.8041 11.7763C26.0275 11.0567 26.9014 10.5187 27.6342 10.063C28.6526 9.43245 29.4593 8.93558 30.1483 8.57235C29.8156 8.38046 29.4526 8.17143 29.0559 7.93499C28.8375 7.80478 28.6224 7.67799 28.4173 7.55463C27.9905 7.37644 27.6476 7.30448 27.3317 7.34218C26.5989 7.43127 25.6175 8.03779 23.8327 9.14118C22.9924 9.65861 22.0009 10.272 20.9656 10.8819C19.7959 11.5707 18.8481 12.1018 18.0481 12.5473C16.0382 13.6712 15.0332 14.2332 14.6668 14.8843C14.2937 15.5422 14.3173 16.7107 14.3677 19.0443C14.3878 20.0825 14.4147 21.3127 14.4147 22.4469C14.4147 23.5812 14.3878 24.8113 14.3677 25.8496C14.3173 28.3305 13.84 29.8246 15.9508 31.065C16.3306 31.2946 16.6936 31.5105 17.0364 31.7161ZM12.035 28.8377C11.9913 28.0358 12.0115 27.0558 12.0384 25.8085C12.0552 24.969 12.0754 23.9787 12.0754 22.4504C12.0754 20.9221 12.0552 19.9318 12.0384 19.0922C11.9812 16.32 11.951 14.9357 12.6501 13.7055C13.3526 12.465 14.5424 11.8003 16.9255 10.4639C17.7389 10.0081 18.7036 9.46671 19.7959 8.82592C21.0194 8.10632 21.8933 7.56834 22.626 7.11259C23.6882 6.4581 24.5049 5.95095 25.2108 5.59458C23.8831 4.78588 23.1168 4.38496 22.5017 4.38496C21.7488 4.38496 20.7707 4.98806 18.8212 6.19424C17.9809 6.71167 16.9894 7.32504 15.9541 7.93499H15.9508C14.6903 8.67858 13.7929 9.17887 13.04 9.60035C11.0267 10.7243 10.025 11.2863 9.65532 11.9373C9.28223 12.5953 9.30576 13.7638 9.35617 16.0973C9.37634 17.1356 9.40323 18.3658 9.40323 19.5C9.40323 20.6377 9.37634 21.8644 9.35617 22.9027C9.30912 25.2328 9.28223 26.3979 9.65532 27.0558V27.0592C9.95782 27.5938 10.6838 28.0667 12.035 28.8377Z" fill="url(#paint8_linear_531_18)"></path><defs><linearGradient id="paint0_linear_531_18" x1="46" y1="11" x2="57.0775" y2="58.4118" gradientUnits="userSpaceOnUse"><stop stop-color="#02CE80"></stop><stop offset="1" stop-color="#7BD706"></stop></linearGradient><linearGradient id="paint1_linear_531_18" x1="46" y1="11" x2="57.0775" y2="58.4118" gradientUnits="userSpaceOnUse"><stop stop-color="#02CE80"></stop><stop offset="1" stop-color="#7BD706"></stop></linearGradient><linearGradient id="paint2_linear_531_18" x1="46" y1="11" x2="57.0775" y2="58.4118" gradientUnits="userSpaceOnUse"><stop stop-color="#02CE80"></stop><stop offset="1" stop-color="#7BD706"></stop></linearGradient><linearGradient id="paint3_linear_531_18" x1="46" y1="11" x2="57.0775" y2="58.4118" gradientUnits="userSpaceOnUse"><stop stop-color="#02CE80"></stop><stop offset="1" stop-color="#7BD706"></stop></linearGradient><linearGradient id="paint4_linear_531_18" x1="46" y1="11" x2="57.0775" y2="58.4118" gradientUnits="userSpaceOnUse"><stop stop-color="#02CE80"></stop><stop offset="1" stop-color="#7BD706"></stop></linearGradient><linearGradient id="paint5_linear_531_18" x1="46" y1="11" x2="57.0775" y2="58.4118" gradientUnits="userSpaceOnUse"><stop stop-color="#02CE80"></stop><stop offset="1" stop-color="#7BD706"></stop></linearGradient><linearGradient id="paint6_linear_531_18" x1="46" y1="11" x2="57.0775" y2="58.4118" gradientUnits="userSpaceOnUse"><stop stop-color="#02CE80"></stop><stop offset="1" stop-color="#7BD706"></stop></linearGradient><linearGradient id="paint7_linear_531_18" x1="46" y1="11" x2="57.0775" y2="58.4118" gradientUnits="userSpaceOnUse"><stop stop-color="#02CE80"></stop><stop offset="1" stop-color="#7BD706"></stop></linearGradient><linearGradient id="paint8_linear_531_18" x1="7" y1="2" x2="41.7473" y2="32.7764" gradientUnits="userSpaceOnUse"><stop stop-color="#02CE80"></stop><stop offset="1" stop-color="#7BD706"></stop></linearGradient></defs></svg>