<svg xmlns="http://www.w3.org/2000/svg" width="160" height="40" viewBox="0 0 160 40" fill="none"><path d="M148.036 30.0065C146.936 30.0065 146.011 29.8731 145.261 29.6065C144.527 29.3398 143.969 28.8898 143.586 28.2565C143.219 27.6065 143.036 26.7231 143.036 25.6065V19.9565H141.086V16.8315H143.036V13.3065H146.536V16.8315H149.411V19.9565H146.536V25.1065C146.536 25.6565 146.636 26.0898 146.836 26.4065C147.036 26.7231 147.486 26.8815 148.186 26.8815H149.286V30.0065H148.036Z" fill="url(#paint0_linear_531_24)"></path><path d="M133.566 30.0065V19.9565H131.591V16.8315H133.566V15.6315C133.566 14.6315 133.724 13.8148 134.041 13.1815C134.374 12.5315 134.874 12.0565 135.541 11.7565C136.224 11.4565 137.091 11.3065 138.141 11.3065H140.316V14.4065H138.591C138.208 14.4065 137.899 14.4648 137.666 14.5815C137.449 14.6981 137.299 14.8815 137.216 15.1315C137.133 15.3648 137.091 15.6565 137.091 16.0065V16.8315H140.316V19.9565H137.091V30.0065H133.566Z" fill="url(#paint1_linear_531_24)"></path><path d="M126.191 30.0064V16.8314H129.691V30.0064H126.191ZM127.941 15.5064C127.291 15.5064 126.766 15.3148 126.366 14.9314C125.966 14.5314 125.766 14.0231 125.766 13.4064C125.766 12.7564 125.975 12.2314 126.391 11.8314C126.808 11.4314 127.333 11.2314 127.966 11.2314C128.55 11.2314 129.05 11.4314 129.466 11.8314C129.9 12.2148 130.116 12.7314 130.116 13.3814C130.116 14.0148 129.908 14.5314 129.491 14.9314C129.091 15.3148 128.575 15.5064 127.941 15.5064Z" fill="url(#paint2_linear_531_24)"></path><path d="M111.055 30.0065V12.3065H114.555V18.3565C114.938 17.9065 115.363 17.5565 115.83 17.3065C116.313 17.0565 116.796 16.8815 117.28 16.7815C117.78 16.6648 118.238 16.6065 118.655 16.6065C119.888 16.6065 120.855 16.8815 121.555 17.4315C122.255 17.9815 122.755 18.7231 123.055 19.6565C123.355 20.5898 123.505 21.6148 123.505 22.7315V30.0065H120.005V23.2315C120.005 22.8315 119.963 22.4315 119.88 22.0315C119.813 21.6315 119.688 21.2648 119.505 20.9315C119.321 20.5815 119.063 20.3065 118.73 20.1065C118.396 19.8898 117.955 19.7815 117.405 19.7815C116.888 19.7815 116.446 19.8898 116.08 20.1065C115.713 20.3231 115.413 20.6148 115.18 20.9815C114.963 21.3315 114.805 21.7231 114.705 22.1565C114.605 22.5898 114.555 23.0231 114.555 23.4565V30.0065H111.055Z" fill="url(#paint3_linear_531_24)"></path><path d="M103.387 30.1814C102.771 30.1814 102.137 30.1148 101.487 29.9814C100.837 29.8481 100.237 29.6231 99.6875 29.3064C99.1375 28.9731 98.6708 28.5314 98.2875 27.9814C97.9041 27.4148 97.6541 26.7148 97.5375 25.8814H101.087C101.187 26.1814 101.362 26.4398 101.612 26.6564C101.879 26.8731 102.179 27.0314 102.512 27.1314C102.862 27.2314 103.212 27.2814 103.562 27.2814C103.796 27.2814 104.029 27.2648 104.262 27.2314C104.496 27.1981 104.712 27.1314 104.912 27.0314C105.112 26.9314 105.271 26.8064 105.387 26.6564C105.504 26.4898 105.562 26.2814 105.562 26.0314C105.562 25.7648 105.479 25.5564 105.312 25.4064C105.146 25.2564 104.912 25.1398 104.612 25.0564C104.312 24.9564 103.971 24.8648 103.587 24.7814C102.904 24.6314 102.171 24.4648 101.387 24.2814C100.604 24.0981 99.9291 23.8314 99.3625 23.4814C99.1291 23.3148 98.9208 23.1314 98.7375 22.9314C98.5541 22.7314 98.4041 22.5064 98.2875 22.2564C98.1708 22.0064 98.0791 21.7481 98.0125 21.4814C97.9458 21.1981 97.9125 20.8981 97.9125 20.5814C97.9125 19.8648 98.0625 19.2564 98.3625 18.7564C98.6791 18.2398 99.0958 17.8231 99.6125 17.5064C100.129 17.1898 100.704 16.9648 101.337 16.8314C101.971 16.6814 102.621 16.6064 103.287 16.6064C104.187 16.6064 105.021 16.7564 105.787 17.0564C106.554 17.3398 107.187 17.7898 107.687 18.4064C108.187 19.0064 108.496 19.7898 108.612 20.7564H105.262C105.196 20.3898 104.971 20.0981 104.587 19.8814C104.204 19.6481 103.729 19.5314 103.162 19.5314C102.962 19.5314 102.746 19.5481 102.512 19.5814C102.296 19.6148 102.096 19.6731 101.912 19.7564C101.729 19.8398 101.579 19.9564 101.462 20.1064C101.346 20.2398 101.287 20.4231 101.287 20.6564C101.287 20.8398 101.337 21.0064 101.437 21.1564C101.554 21.3064 101.712 21.4314 101.912 21.5314C102.129 21.6314 102.387 21.7231 102.687 21.8064C103.254 21.9398 103.821 22.0648 104.387 22.1814C104.971 22.2814 105.487 22.3898 105.937 22.5064C106.487 22.6231 106.987 22.8148 107.437 23.0814C107.904 23.3481 108.279 23.7148 108.562 24.1814C108.862 24.6314 109.012 25.2231 109.012 25.9564C109.012 26.7898 108.846 27.4814 108.512 28.0314C108.179 28.5648 107.729 28.9898 107.162 29.3064C106.612 29.6231 106.004 29.8481 105.337 29.9814C104.687 30.1148 104.037 30.1814 103.387 30.1814Z" fill="url(#paint4_linear_531_24)"></path><path d="M93.0656 30.1814C91.5823 30.1814 90.4823 29.7648 89.7656 28.9314C89.0656 28.0981 88.7156 26.9564 88.7156 25.5064V19.9564H86.7406V16.8314H88.7156V13.2814H92.2156V16.8314H96.2156V19.9564H92.2156V24.7814C92.2156 25.2148 92.2656 25.5898 92.3656 25.9064C92.4823 26.2231 92.6656 26.4731 92.9156 26.6564C93.1823 26.8231 93.5406 26.9064 93.9906 26.9064C94.3906 26.9064 94.7239 26.8481 94.9906 26.7314C95.2739 26.5981 95.5073 26.4564 95.6906 26.3064L96.7906 29.0064C96.4406 29.2898 96.0489 29.5231 95.6156 29.7064C95.1989 29.8731 94.7739 29.9898 94.3406 30.0564C93.9073 30.1398 93.4823 30.1814 93.0656 30.1814Z" fill="url(#paint5_linear_531_24)"></path><path d="M81.4161 30.0065V12.3065H84.9161V30.0065H81.4161Z" fill="url(#paint6_linear_531_24)"></path><path d="M72.6003 30.1814C71.267 30.1814 70.1003 29.9148 69.1003 29.3814C68.1003 28.8314 67.3253 28.0564 66.7753 27.0564C66.2253 26.0398 65.9503 24.8398 65.9503 23.4564C65.9503 22.0398 66.2253 20.8231 66.7753 19.8064C67.342 18.7731 68.1253 17.9814 69.1253 17.4314C70.1253 16.8814 71.2753 16.6064 72.5753 16.6064C73.9087 16.6064 75.067 16.8898 76.0503 17.4564C77.0337 18.0231 77.8003 18.8148 78.3503 19.8314C78.9003 20.8481 79.1753 22.0648 79.1753 23.4814C79.1753 24.8648 78.9003 26.0648 78.3503 27.0814C77.817 28.0814 77.0587 28.8481 76.0753 29.3814C75.1087 29.9148 73.9503 30.1814 72.6003 30.1814ZM72.5503 26.9814C73.317 26.9814 73.9337 26.8148 74.4003 26.4814C74.867 26.1481 75.2003 25.7148 75.4003 25.1814C75.617 24.6314 75.7253 24.0564 75.7253 23.4564C75.7253 22.8564 75.617 22.2814 75.4003 21.7314C75.2003 21.1814 74.867 20.7314 74.4003 20.3814C73.9503 20.0148 73.3337 19.8314 72.5503 19.8314C71.8003 19.8314 71.192 20.0148 70.7253 20.3814C70.2587 20.7314 69.917 21.1814 69.7003 21.7314C69.5003 22.2814 69.4003 22.8564 69.4003 23.4564C69.4003 24.0731 69.5003 24.6481 69.7003 25.1814C69.917 25.7148 70.2587 26.1481 70.7253 26.4814C71.192 26.8148 71.8003 26.9814 72.5503 26.9814Z" fill="url(#paint7_linear_531_24)"></path><path d="M50.0063 30.0065V12.3065H57.7563C58.573 12.3065 59.3147 12.3898 59.9813 12.5565C60.6647 12.7065 61.2563 12.9565 61.7563 13.3065C62.2563 13.6565 62.6397 14.1231 62.9063 14.7065C63.1897 15.2898 63.3313 16.0315 63.3313 16.9315C63.3313 17.6648 63.1647 18.3481 62.8313 18.9815C62.498 19.6148 62.0063 20.0981 61.3563 20.4315C62.223 20.7148 62.9063 21.2065 63.4063 21.9065C63.9063 22.5898 64.1563 23.4981 64.1563 24.6315C64.1563 25.6481 63.9647 26.5065 63.5813 27.2065C63.198 27.8898 62.673 28.4398 62.0063 28.8565C61.3397 29.2731 60.5647 29.5731 59.6813 29.7565C58.798 29.9231 57.8563 30.0065 56.8563 30.0065H50.0063ZM53.5813 26.7065H57.2813C57.7313 26.7065 58.148 26.6731 58.5313 26.6065C58.9313 26.5398 59.2813 26.4315 59.5813 26.2815C59.8813 26.1148 60.1147 25.8898 60.2813 25.6065C60.4647 25.3231 60.5563 24.9731 60.5563 24.5565C60.5563 24.1731 60.4813 23.8565 60.3313 23.6065C60.198 23.3398 59.998 23.1231 59.7313 22.9565C59.4813 22.7898 59.1813 22.6731 58.8313 22.6065C58.498 22.5398 58.123 22.5065 57.7063 22.5065H53.5813V26.7065ZM53.5813 19.5315H56.8563C57.3063 19.5315 57.7147 19.4898 58.0813 19.4065C58.448 19.3231 58.7563 19.1898 59.0063 19.0065C59.2563 18.8231 59.448 18.5981 59.5813 18.3315C59.7147 18.0481 59.7813 17.7231 59.7813 17.3565C59.798 16.8565 59.6897 16.4898 59.4563 16.2565C59.223 16.0065 58.9063 15.8398 58.5063 15.7565C58.1063 15.6565 57.6563 15.6065 57.1563 15.6065H53.5813V19.5315Z" fill="url(#paint8_linear_531_24)"></path><path d="M18.632 10.2874C19.1088 10.4164 19.5677 10.4308 19.9979 10.3555C20.55 10.2587 21.1164 10.4487 21.5108 10.8466L22.3783 11.7142C22.8014 12.1372 22.9806 12.7431 22.8516 13.3239C22.7333 13.8545 22.7512 14.4317 22.9663 15.0447C23.3391 16.0987 24.2605 16.9161 25.3575 17.1204C27.3938 17.5005 29.172 15.9481 29.172 13.98C29.172 13.7398 29.1433 13.5067 29.0895 13.2845C28.9533 12.7109 29.1505 12.1086 29.5663 11.6891L30.4267 10.8287C30.8318 10.4236 31.409 10.2372 31.9719 10.3411C32.481 10.4379 33.0295 10.4093 33.6102 10.2049C34.6929 9.82132 35.5175 8.84977 35.6932 7.71332C36.0445 5.51211 34.1229 3.63714 31.9002 4.06734C30.7494 4.28961 29.785 5.1787 29.466 6.30799C29.2939 6.92461 29.3082 7.51614 29.4588 8.05031C29.6309 8.65977 29.4588 9.31224 29.0107 9.76037L28.3618 10.4093C27.9387 10.8323 27.3293 11.0366 26.7521 10.8861C26.5047 10.8215 26.2502 10.7857 25.9813 10.7857C25.7088 10.7857 25.4435 10.8215 25.1926 10.8897C24.6154 11.0438 24.0024 10.8359 23.5793 10.4128L22.9914 9.8249C22.5397 9.37319 22.3676 8.70996 22.5468 8.09333C22.7046 7.55199 22.7225 6.95329 22.5612 6.33308C22.26 5.20021 21.3064 4.30754 20.1592 4.07093C17.9114 3.60487 15.9575 5.50494 16.3232 7.73841C16.5168 8.95374 17.4489 9.9683 18.632 10.2874Z" fill="url(#paint9_linear_531_24)"></path><path d="M33.6138 29.7971C33.0366 29.5928 32.4845 29.5641 31.9755 29.6609C31.4126 29.7684 30.8354 29.5784 30.4303 29.1733L29.5699 28.3129C29.1505 27.8935 28.9569 27.2912 29.0931 26.7176C29.1469 26.4953 29.1756 26.2623 29.1756 26.0221C29.1756 24.0539 27.3974 22.5016 25.3611 22.8816C24.2641 23.0859 23.3427 23.9069 22.9699 24.9573C22.7512 25.5704 22.7368 26.1476 22.8552 26.6781C22.9842 27.2625 22.805 27.8684 22.3819 28.2878L21.5143 29.1554C21.1164 29.5533 20.5536 29.7433 20.0015 29.6465C19.5713 29.5713 19.1124 29.5856 18.6356 29.7147C17.4525 30.0337 16.5204 31.0519 16.3232 32.26C15.9575 34.4935 17.9114 36.39 20.1592 35.9275C21.3064 35.6909 22.26 34.7982 22.5612 33.6654C22.7261 33.0452 22.7046 32.4465 22.5468 31.9051C22.3676 31.2885 22.5361 30.6288 22.9914 30.1735L23.5793 29.5856C24.0024 29.1626 24.6154 28.9546 25.1926 29.1088C25.4435 29.1769 25.7088 29.2128 25.9813 29.2128C26.2466 29.2128 26.5047 29.1769 26.7521 29.1124C27.3293 28.9618 27.9423 29.1662 28.3618 29.5892L29.0107 30.2381C29.4588 30.6862 29.6309 31.3387 29.4588 31.9481C29.3082 32.4823 29.2939 33.0774 29.466 33.6905C29.7814 34.8197 30.7458 35.7088 31.9002 35.9311C34.1229 36.3613 36.0445 34.4899 35.6967 32.278C35.5175 31.1558 34.6965 30.1843 33.6138 29.7971Z" fill="url(#paint10_linear_531_24)"></path><path d="M16.3591 26.0149C16.2623 25.4628 16.4523 24.8964 16.8502 24.502L17.7178 23.6344C18.1408 23.2114 18.7467 23.0322 19.3275 23.1612C19.8581 23.2795 20.4353 23.2616 21.0483 23.0465C22.1023 22.6737 22.9197 21.7523 23.124 20.6553C23.504 18.619 21.9517 16.8408 19.9835 16.8408C19.7433 16.8408 19.5103 16.8695 19.288 16.9233C18.7144 17.0595 18.1122 16.8623 17.6927 16.4465L16.8323 15.586C16.4272 15.1809 16.2408 14.6038 16.3447 14.0409C16.4415 13.5318 16.4128 12.9833 16.2085 12.4025C15.8249 11.3199 14.8534 10.4953 13.7169 10.3196C11.5121 9.9683 9.63714 11.8899 10.0673 14.1126C10.2896 15.267 11.1787 16.2278 12.308 16.5468C12.9246 16.7189 13.5161 16.7046 14.0503 16.554C14.6598 16.3819 15.3122 16.554 15.7604 17.0021L16.4093 17.651C16.8323 18.0741 17.0366 18.6835 16.8861 19.2607C16.8215 19.5081 16.7857 19.7626 16.7857 20.0315C16.7857 20.304 16.8215 20.5692 16.8897 20.8202C17.0438 21.3974 16.8359 22.0104 16.4128 22.4335L15.8249 23.0214C15.3732 23.4731 14.71 23.6452 14.0933 23.466C13.552 23.3082 12.9533 23.2903 12.3331 23.4516C11.2002 23.7528 10.3075 24.7064 10.0709 25.8536C9.60487 28.1014 11.5049 30.0552 13.7384 29.6896C14.9466 29.4924 15.9647 28.5603 16.2838 27.3772C16.4164 26.904 16.4308 26.4451 16.3591 26.0149Z" fill="url(#paint11_linear_531_24)"></path><path d="M41.9347 25.8572C41.6981 24.71 40.8054 23.7563 39.6725 23.4552C39.0523 23.2903 38.4536 23.3118 37.9123 23.4695C37.2957 23.6488 36.636 23.4803 36.1807 23.025L35.5928 22.437C35.1697 22.014 34.9618 21.401 35.116 20.8238C35.1841 20.5728 35.2199 20.3075 35.2199 20.0351C35.2199 19.7698 35.1841 19.5117 35.1195 19.2643C34.969 18.6871 35.1733 18.0741 35.5964 17.6546L36.2452 17.0057C36.6934 16.5576 37.3459 16.3855 37.9553 16.5576C38.4895 16.7082 39.0846 16.7225 39.6976 16.5504C40.8269 16.2349 41.716 15.2706 41.9383 14.1162C42.3685 11.8935 40.4971 9.97189 38.2851 10.3196C37.1523 10.4989 36.1771 11.3199 35.7935 12.4025C35.5892 12.9797 35.5605 13.5318 35.6573 14.0409C35.7649 14.6038 35.5748 15.1809 35.1697 15.5861L34.3093 16.4465C33.8899 16.8659 33.2876 17.0595 32.714 16.9233C32.4917 16.8695 32.2587 16.8408 32.0185 16.8408C30.0503 16.8408 28.498 18.619 28.878 20.6553C29.0824 21.7523 29.9033 22.6737 30.9537 23.0465C31.5668 23.2652 32.144 23.2795 32.6746 23.1612C33.2589 23.0322 33.8648 23.2114 34.2842 23.6344L35.1518 24.502C35.5498 24.9 35.7398 25.4628 35.643 26.0149C35.5677 26.4451 35.582 26.904 35.7111 27.3808C36.0301 28.5639 37.0483 29.496 38.2565 29.6932C40.5007 30.0588 42.3972 28.105 41.9347 25.8572Z" fill="url(#paint12_linear_531_24)"></path><defs><linearGradient id="paint0_linear_531_24" x1="50.0063" y1="11.2314" x2="56.9781" y2="47.8024" gradientUnits="userSpaceOnUse"><stop stop-color="#02CE80"></stop><stop offset="1" stop-color="#7BD706"></stop></linearGradient><linearGradient id="paint1_linear_531_24" x1="50.0063" y1="11.2314" x2="56.9781" y2="47.8024" gradientUnits="userSpaceOnUse"><stop stop-color="#02CE80"></stop><stop offset="1" stop-color="#7BD706"></stop></linearGradient><linearGradient id="paint2_linear_531_24" x1="50.0063" y1="11.2314" x2="56.9781" y2="47.8024" gradientUnits="userSpaceOnUse"><stop stop-color="#02CE80"></stop><stop offset="1" stop-color="#7BD706"></stop></linearGradient><linearGradient id="paint3_linear_531_24" x1="50.0063" y1="11.2314" x2="56.9781" y2="47.8024" gradientUnits="userSpaceOnUse"><stop stop-color="#02CE80"></stop><stop offset="1" stop-color="#7BD706"></stop></linearGradient><linearGradient id="paint4_linear_531_24" x1="50.0063" y1="11.2314" x2="56.9781" y2="47.8024" gradientUnits="userSpaceOnUse"><stop stop-color="#02CE80"></stop><stop offset="1" stop-color="#7BD706"></stop></linearGradient><linearGradient id="paint5_linear_531_24" x1="50.0063" y1="11.2314" x2="56.9781" y2="47.8024" gradientUnits="userSpaceOnUse"><stop stop-color="#02CE80"></stop><stop offset="1" stop-color="#7BD706"></stop></linearGradient><linearGradient id="paint6_linear_531_24" x1="50.0063" y1="11.2314" x2="56.9781" y2="47.8024" gradientUnits="userSpaceOnUse"><stop stop-color="#02CE80"></stop><stop offset="1" stop-color="#7BD706"></stop></linearGradient><linearGradient id="paint7_linear_531_24" x1="50.0063" y1="11.2314" x2="56.9781" y2="47.8024" gradientUnits="userSpaceOnUse"><stop stop-color="#02CE80"></stop><stop offset="1" stop-color="#7BD706"></stop></linearGradient><linearGradient id="paint8_linear_531_24" x1="50.0063" y1="11.2314" x2="56.9781" y2="47.8024" gradientUnits="userSpaceOnUse"><stop stop-color="#02CE80"></stop><stop offset="1" stop-color="#7BD706"></stop></linearGradient><linearGradient id="paint9_linear_531_24" x1="10" y1="4" x2="41.9976" y2="36.0047" gradientUnits="userSpaceOnUse"><stop stop-color="#02CE80"></stop><stop offset="1" stop-color="#7BD706"></stop></linearGradient><linearGradient id="paint10_linear_531_24" x1="10" y1="4" x2="41.9976" y2="36.0047" gradientUnits="userSpaceOnUse"><stop stop-color="#02CE80"></stop><stop offset="1" stop-color="#7BD706"></stop></linearGradient><linearGradient id="paint11_linear_531_24" x1="10" y1="4" x2="41.9976" y2="36.0047" gradientUnits="userSpaceOnUse"><stop stop-color="#02CE80"></stop><stop offset="1" stop-color="#7BD706"></stop></linearGradient><linearGradient id="paint12_linear_531_24" x1="10" y1="4" x2="41.9976" y2="36.0047" gradientUnits="userSpaceOnUse"><stop stop-color="#02CE80"></stop><stop offset="1" stop-color="#7BD706"></stop></linearGradient></defs></svg>