<svg xmlns="http://www.w3.org/2000/svg" width="160" height="40" viewBox="0 0 160 40" fill="none"><path d="M148.974 28.3208C147.615 28.3208 146.485 28.0149 145.584 27.4032C144.701 26.7745 144.038 25.9418 143.596 24.9052C143.154 23.8517 142.933 22.6877 142.933 21.4132C142.933 20.0708 143.171 18.8813 143.647 17.8447C144.123 16.7911 144.828 15.967 145.763 15.3722C146.697 14.7775 147.861 14.4801 149.255 14.4801C149.731 14.4801 150.198 14.5396 150.657 14.6585C151.132 14.7605 151.566 14.9219 151.957 15.1428C152.364 15.3467 152.713 15.6186 153.002 15.9585V10.0959H156.57V28.1424H153.104L153.053 26.6385C152.747 27.0293 152.373 27.3522 151.931 27.6071C151.506 27.845 151.047 28.0234 150.555 28.1424C150.062 28.2613 149.535 28.3208 148.974 28.3208ZM149.688 25.1092C150.453 25.1092 151.073 24.9307 151.549 24.5739C152.042 24.217 152.407 23.7582 152.645 23.1975C152.883 22.6367 153.002 22.0334 153.002 21.3877C153.002 20.725 152.883 20.1217 152.645 19.578C152.424 19.0172 152.067 18.5754 151.574 18.2525C151.098 17.9127 150.47 17.7427 149.688 17.7427C148.906 17.7427 148.278 17.9212 147.802 18.278C147.326 18.6349 146.986 19.1022 146.782 19.6799C146.595 20.2407 146.502 20.8439 146.502 21.4897C146.502 21.9655 146.553 22.4243 146.655 22.8661C146.774 23.2909 146.961 23.6733 147.216 24.0131C147.47 24.353 147.802 24.6249 148.21 24.8288C148.618 25.0157 149.11 25.1092 149.688 25.1092Z" fill="url(#paint0_linear_531_8)"></path><path d="M135.146 28.3209C133.769 28.3209 132.588 28.0405 131.603 27.4798C130.634 26.919 129.895 26.1288 129.385 25.1093C128.876 24.0727 128.621 22.8577 128.621 21.4643C128.621 20.0539 128.884 18.8304 129.411 17.7938C129.938 16.7403 130.694 15.9246 131.679 15.3469C132.682 14.7691 133.888 14.4802 135.299 14.4802C136.386 14.4802 137.355 14.6756 138.205 15.0665C139.054 15.4573 139.734 16.0181 140.244 16.7488C140.771 17.4795 141.076 18.3801 141.161 19.4506H137.669C137.516 18.8559 137.219 18.4226 136.777 18.1507C136.352 17.8788 135.843 17.7429 135.248 17.7429C134.483 17.7429 133.871 17.9298 133.413 18.3036C132.971 18.6775 132.648 19.1533 132.444 19.731C132.257 20.3088 132.164 20.8865 132.164 21.4643C132.164 22.093 132.266 22.6878 132.47 23.2485C132.673 23.7923 132.996 24.2426 133.438 24.5995C133.897 24.9393 134.492 25.1093 135.222 25.1093C135.834 25.1093 136.369 24.9733 136.828 24.7014C137.287 24.4126 137.584 23.9707 137.72 23.376H141.289C141.204 24.4805 140.873 25.3981 140.295 26.1288C139.717 26.8595 138.978 27.4118 138.077 27.7856C137.194 28.1425 136.216 28.3209 135.146 28.3209Z" fill="url(#paint1_linear_531_8)"></path><path d="M120.363 28.3209C118.953 28.3209 117.755 28.0405 116.769 27.4798C115.783 26.919 115.027 26.1288 114.5 25.1093C113.974 24.0727 113.71 22.8662 113.71 21.4898C113.71 20.0964 113.982 18.8814 114.526 17.8448C115.07 16.7913 115.834 15.9671 116.82 15.3724C117.823 14.7776 119.004 14.4802 120.363 14.4802C121.383 14.4802 122.275 14.6502 123.039 14.99C123.821 15.3299 124.475 15.8057 125.002 16.4174C125.546 17.0292 125.945 17.7429 126.2 18.5585C126.472 19.3572 126.599 20.2238 126.582 21.1584C126.582 21.3963 126.574 21.6257 126.557 21.8466C126.54 22.0675 126.506 22.2885 126.455 22.5094H117.253C117.304 23.0191 117.449 23.4865 117.687 23.9113C117.924 24.3361 118.256 24.676 118.681 24.9308C119.122 25.1687 119.666 25.2877 120.312 25.2877C120.737 25.2877 121.128 25.2452 121.484 25.1602C121.841 25.0583 122.147 24.9054 122.402 24.7014C122.657 24.4975 122.835 24.2596 122.937 23.9877H126.455C126.234 24.9903 125.818 25.8145 125.206 26.4602C124.611 27.1059 123.889 27.5817 123.039 27.8876C122.19 28.1765 121.298 28.3209 120.363 28.3209ZM117.33 20.0114H123.167C123.15 19.5526 123.031 19.1278 122.81 18.7369C122.606 18.3291 122.292 18.0062 121.867 17.7683C121.459 17.5135 120.932 17.386 120.286 17.386C119.641 17.386 119.097 17.5135 118.655 17.7683C118.23 18.0232 117.907 18.3546 117.687 18.7624C117.483 19.1533 117.364 19.5696 117.33 20.0114Z" fill="url(#paint2_linear_531_8)"></path><path d="M108.947 28.3209C107.435 28.3209 106.313 27.896 105.582 27.0464C104.869 26.1968 104.512 25.0327 104.512 23.5544V17.8957H102.498V14.7096H104.512V11.0901H108.08V14.7096H112.159V17.8957H108.08V22.8152C108.08 23.257 108.131 23.6393 108.233 23.9622C108.352 24.2851 108.539 24.5399 108.794 24.7269C109.066 24.8968 109.431 24.9818 109.89 24.9818C110.298 24.9818 110.638 24.9223 110.91 24.8033C111.198 24.6674 111.436 24.523 111.623 24.37L112.745 27.1229C112.388 27.4117 111.989 27.6496 111.547 27.8366C111.122 28.0065 110.689 28.1254 110.247 28.1934C109.805 28.2784 109.372 28.3209 108.947 28.3209Z" fill="url(#paint3_linear_531_8)"></path><path d="M93.0671 28.3208C91.7077 28.3208 90.5777 28.0149 89.677 27.4032C88.7934 26.7745 88.1307 25.9418 87.6889 24.9052C87.2471 23.8517 87.0261 22.6877 87.0261 21.4132C87.0261 20.0708 87.264 18.8813 87.7398 17.8447C88.2156 16.7911 88.9209 15.967 89.8555 15.3722C90.7901 14.7775 91.9541 14.4801 93.3475 14.4801C93.8233 14.4801 94.2906 14.5396 94.7494 14.6585C95.2252 14.7605 95.6585 14.9219 96.0494 15.1428C96.4572 15.3467 96.8055 15.6186 97.0944 15.9585V10.0959H100.663V28.1424H97.1964L97.1454 26.6385C96.8395 27.0293 96.4657 27.3522 96.0239 27.6071C95.5991 27.845 95.1402 28.0234 94.6475 28.1424C94.1547 28.2613 93.6279 28.3208 93.0671 28.3208ZM93.7808 25.1092C94.5455 25.1092 95.1657 24.9307 95.6415 24.5739C96.1343 24.217 96.4997 23.7582 96.7376 23.1975C96.9755 22.6367 97.0944 22.0334 97.0944 21.3877C97.0944 20.725 96.9755 20.1217 96.7376 19.578C96.5167 19.0172 96.1598 18.5754 95.667 18.2525C95.1912 17.9127 94.5625 17.7427 93.7808 17.7427C92.9991 17.7427 92.3704 17.9212 91.8946 18.278C91.4188 18.6349 91.0789 19.1022 90.875 19.6799C90.6881 20.2407 90.5947 20.8439 90.5947 21.4897C90.5947 21.9655 90.6456 22.4243 90.7476 22.8661C90.8665 23.2909 91.0535 23.6733 91.3083 24.0131C91.5632 24.353 91.8946 24.6249 92.3024 24.8288C92.7103 25.0157 93.2031 25.1092 93.7808 25.1092Z" fill="url(#paint4_linear_531_8)"></path><path d="M72.103 28.1425V14.7096H75.4421L75.6206 16.2645C75.9944 15.8057 76.4192 15.4488 76.895 15.1939C77.3878 14.922 77.8806 14.7351 78.3734 14.6332C78.8832 14.5312 79.342 14.4802 79.7498 14.4802C81.0413 14.4802 82.0439 14.7606 82.7576 15.3214C83.4883 15.8821 84.0066 16.6383 84.3124 17.5899C84.6353 18.5245 84.7967 19.5696 84.7967 20.7251V28.1425H81.2282V21.1839C81.2282 20.7761 81.1942 20.3683 81.1263 19.9604C81.0583 19.5526 80.9308 19.1788 80.7439 18.8389C80.574 18.499 80.3276 18.2272 80.0047 18.0232C79.6819 17.8193 79.257 17.7174 78.7303 17.7174C78.0506 17.7174 77.4813 17.8873 77.0225 18.2272C76.5637 18.567 76.2238 19.0258 76.0029 19.6036C75.782 20.1813 75.6715 20.8186 75.6715 21.5153V28.1425H72.103Z" fill="url(#paint5_linear_531_8)"></path><path d="M65.706 28.1425V14.7096H69.2745V28.1425H65.706ZM67.4903 13.3587C66.8276 13.3587 66.2923 13.1633 65.8845 12.7724C65.4766 12.3646 65.2727 11.8463 65.2727 11.2176C65.2727 10.5548 65.4851 10.0196 65.9099 9.61174C66.3348 9.20391 66.87 9 67.5158 9C68.1105 9 68.6203 9.20391 69.0451 9.61174C69.4869 10.0026 69.7079 10.5294 69.7079 11.1921C69.7079 11.8378 69.4954 12.3646 69.0706 12.7724C68.6628 13.1633 68.136 13.3587 67.4903 13.3587Z" fill="url(#paint6_linear_531_8)"></path><path d="M44 28.1424V14.7095H47.2117L47.5175 16.2134C47.8574 15.7376 48.2312 15.3808 48.6391 15.1429C49.0639 14.888 49.4887 14.718 49.9135 14.6331C50.3383 14.5481 50.7292 14.5056 51.086 14.5056C51.8847 14.5056 52.5899 14.6586 53.2016 14.9644C53.8134 15.2703 54.3062 15.7631 54.68 16.4428C55.0369 15.95 55.4277 15.5677 55.8525 15.2958C56.2774 15.0069 56.7277 14.803 57.2035 14.684C57.6793 14.5651 58.1636 14.5056 58.6564 14.5056C59.6929 14.5056 60.5256 14.7265 61.1543 15.1683C61.8 15.5932 62.2673 16.1879 62.5562 16.9526C62.8621 17.7173 63.015 18.6094 63.015 19.629V28.1424H59.4465V20.5721C59.4465 20.2662 59.4295 19.9518 59.3955 19.629C59.3616 19.3061 59.2766 19.0002 59.1406 18.7114C59.0217 18.4225 58.8348 18.1846 58.5799 17.9977C58.342 17.8107 58.0021 17.7173 57.5603 17.7173C57.1355 17.7173 56.7786 17.8107 56.4898 17.9977C56.2009 18.1846 55.9715 18.4395 55.8015 18.7623C55.6316 19.0682 55.5042 19.4081 55.4192 19.7819C55.3512 20.1388 55.3173 20.5041 55.3173 20.8779V28.1424H51.7487V20.5466C51.7487 20.2577 51.7318 19.9518 51.6978 19.629C51.6638 19.3061 51.5873 19.0002 51.4684 18.7114C51.3494 18.4225 51.154 18.1846 50.8821 17.9977C50.6272 17.8107 50.2704 17.7173 49.8116 17.7173C49.1828 17.7173 48.6985 17.9042 48.3587 18.278C48.0358 18.6349 47.8234 19.0682 47.7214 19.578C47.6195 20.0708 47.5685 20.5296 47.5685 20.9544V28.1424H44Z" fill="url(#paint7_linear_531_8)"></path><path d="M0.631534 20.41C-0.458327 18.8871 -0.100629 16.7729 1.41959 15.6907L11.4798 8.52253C13.0056 7.43475 15.1239 7.79177 16.2082 9.30907C17.298 10.832 16.9403 12.9461 15.4201 14.0283L5.35985 21.1909C3.83405 22.2843 1.72139 21.9273 0.631534 20.41Z" fill="url(#paint8_linear_531_8)"></path><path d="M4.19174 30.5068C3.10188 28.9839 3.45958 26.8697 4.9798 25.7875L26.8832 10.1849C28.409 9.0971 30.5272 9.45411 31.6115 10.9714C32.7014 12.4943 32.3437 14.6085 30.8235 15.6907L8.92006 31.2989C7.39426 32.3811 5.27602 32.0296 4.19174 30.5068Z" fill="url(#paint9_linear_531_8)"></path><path d="M20.4838 31.5387C19.3939 30.0159 19.7516 27.9017 21.2718 26.8195L29.633 20.8618C31.1588 19.774 33.277 20.131 34.3613 21.6484C35.4512 23.1712 35.0935 25.2854 33.5733 26.3676L25.2121 32.3253C23.6863 33.4131 21.568 33.0561 20.4838 31.5387Z" fill="url(#paint10_linear_531_8)"></path><path d="M13.4025 36.5816C12.3126 35.0587 12.6703 32.9445 14.1905 31.8623L14.4029 31.7117C15.9287 30.6239 18.0469 30.9809 19.1312 32.4982C20.2211 34.0211 19.8634 36.1353 18.3432 37.2175L18.1308 37.3681C16.605 38.4559 14.4867 38.1045 13.4025 36.5816Z" fill="url(#paint11_linear_531_8)"></path><path d="M17.5607 8.3496C16.4708 6.82671 16.8285 4.71252 18.3488 3.63033C19.8746 2.54255 21.9928 2.89956 23.0771 4.41687C24.1669 5.93976 23.8092 8.05395 22.289 9.13614C20.7632 10.2239 18.645 9.87249 17.5607 8.3496Z" fill="url(#paint12_linear_531_8)"></path><path d="M7.00303 24.3483L7.5787 23.9411C8.34439 23.3944 8.5456 22.3456 8.037 21.5591C7.49486 20.7168 6.3547 20.4992 5.53311 21.0794L5.36544 21.2021L11.6531 16.7227L11.3792 16.9179C10.5576 17.5037 10.3956 18.6584 11.0271 19.4449C11.614 20.1757 12.6647 20.3207 13.4248 19.774L13.7154 19.5676L7.00303 24.3483Z" fill="url(#paint13_linear_531_8)"></path><path d="M22.5573 25.899L23.133 25.4918C23.8987 24.9452 24.0999 23.8964 23.5913 23.1099C23.0491 22.2676 21.909 22.05 21.0874 22.6301L20.9197 22.7529L27.2074 18.2735L26.9335 18.4687C26.1119 19.0544 25.9498 20.2091 26.5814 20.9957C27.1682 21.7265 28.219 21.8715 28.9791 21.3248L29.2697 21.1184L22.5573 25.899Z" fill="url(#paint14_linear_531_8)"></path><defs><linearGradient id="paint0_linear_531_8" x1="44" y1="9" x2="50.4425" y2="46.5361" gradientUnits="userSpaceOnUse"><stop stop-color="#02CE80"></stop><stop offset="1" stop-color="#7BD706"></stop></linearGradient><linearGradient id="paint1_linear_531_8" x1="44" y1="9" x2="50.4425" y2="46.5361" gradientUnits="userSpaceOnUse"><stop stop-color="#02CE80"></stop><stop offset="1" stop-color="#7BD706"></stop></linearGradient><linearGradient id="paint2_linear_531_8" x1="44" y1="9" x2="50.4425" y2="46.5361" gradientUnits="userSpaceOnUse"><stop stop-color="#02CE80"></stop><stop offset="1" stop-color="#7BD706"></stop></linearGradient><linearGradient id="paint3_linear_531_8" x1="44" y1="9" x2="50.4425" y2="46.5361" gradientUnits="userSpaceOnUse"><stop stop-color="#02CE80"></stop><stop offset="1" stop-color="#7BD706"></stop></linearGradient><linearGradient id="paint4_linear_531_8" x1="44" y1="9" x2="50.4425" y2="46.5361" gradientUnits="userSpaceOnUse"><stop stop-color="#02CE80"></stop><stop offset="1" stop-color="#7BD706"></stop></linearGradient><linearGradient id="paint5_linear_531_8" x1="44" y1="9" x2="50.4425" y2="46.5361" gradientUnits="userSpaceOnUse"><stop stop-color="#02CE80"></stop><stop offset="1" stop-color="#7BD706"></stop></linearGradient><linearGradient id="paint6_linear_531_8" x1="44" y1="9" x2="50.4425" y2="46.5361" gradientUnits="userSpaceOnUse"><stop stop-color="#02CE80"></stop><stop offset="1" stop-color="#7BD706"></stop></linearGradient><linearGradient id="paint7_linear_531_8" x1="44" y1="9" x2="50.4425" y2="46.5361" gradientUnits="userSpaceOnUse"><stop stop-color="#02CE80"></stop><stop offset="1" stop-color="#7BD706"></stop></linearGradient><linearGradient id="paint8_linear_531_8" x1="0" y1="3" x2="35" y2="37.9929" gradientUnits="userSpaceOnUse"><stop stop-color="#02CE80"></stop><stop offset="1" stop-color="#7BD706"></stop></linearGradient><linearGradient id="paint9_linear_531_8" x1="0" y1="3" x2="35" y2="37.9929" gradientUnits="userSpaceOnUse"><stop stop-color="#02CE80"></stop><stop offset="1" stop-color="#7BD706"></stop></linearGradient><linearGradient id="paint10_linear_531_8" x1="0" y1="3" x2="35" y2="37.9929" gradientUnits="userSpaceOnUse"><stop stop-color="#02CE80"></stop><stop offset="1" stop-color="#7BD706"></stop></linearGradient><linearGradient id="paint11_linear_531_8" x1="0" y1="3" x2="35" y2="37.9929" gradientUnits="userSpaceOnUse"><stop stop-color="#02CE80"></stop><stop offset="1" stop-color="#7BD706"></stop></linearGradient><linearGradient id="paint12_linear_531_8" x1="0" y1="3" x2="35" y2="37.9929" gradientUnits="userSpaceOnUse"><stop stop-color="#02CE80"></stop><stop offset="1" stop-color="#7BD706"></stop></linearGradient><linearGradient id="paint13_linear_531_8" x1="0" y1="3" x2="35" y2="37.9929" gradientUnits="userSpaceOnUse"><stop stop-color="#02CE80"></stop><stop offset="1" stop-color="#7BD706"></stop></linearGradient><linearGradient id="paint14_linear_531_8" x1="0" y1="3" x2="35" y2="37.9929" gradientUnits="userSpaceOnUse"><stop stop-color="#02CE80"></stop><stop offset="1" stop-color="#7BD706"></stop></linearGradient></defs></svg>