<svg xmlns="http://www.w3.org/2000/svg" width="160" height="40" viewBox="0 0 160 40" fill="none"><path d="M146.609 29.075C145.226 29.075 144.051 28.8 143.084 28.25C142.117 27.7 141.376 26.925 140.859 25.925C140.342 24.9083 140.084 23.725 140.084 22.375C140.084 21.0083 140.351 19.8167 140.884 18.8C141.417 17.7667 142.167 16.9583 143.134 16.375C144.117 15.7917 145.276 15.5 146.609 15.5C147.609 15.5 148.484 15.6667 149.234 16C150.001 16.3333 150.642 16.8 151.159 17.4C151.692 18 152.084 18.7 152.334 19.5C152.601 20.2833 152.726 21.1333 152.709 22.05C152.709 22.2833 152.701 22.5083 152.684 22.725C152.667 22.9417 152.634 23.1583 152.584 23.375H143.559C143.609 23.875 143.751 24.3333 143.984 24.75C144.217 25.1667 144.542 25.5 144.959 25.75C145.392 25.9833 145.926 26.1 146.559 26.1C146.976 26.1 147.359 26.0583 147.709 25.975C148.059 25.875 148.359 25.725 148.609 25.525C148.859 25.325 149.034 25.0917 149.134 24.825H152.584C152.367 25.8083 151.959 26.6167 151.359 27.25C150.776 27.8833 150.067 28.35 149.234 28.65C148.401 28.9333 147.526 29.075 146.609 29.075ZM143.634 20.925H149.359C149.342 20.475 149.226 20.0583 149.009 19.675C148.809 19.275 148.501 18.9583 148.084 18.725C147.684 18.475 147.167 18.35 146.534 18.35C145.901 18.35 145.367 18.475 144.934 18.725C144.517 18.975 144.201 19.3 143.984 19.7C143.784 20.0833 143.667 20.4917 143.634 20.925Z" fill="url(#paint0_linear_531_15)"></path><path d="M134.31 28.9V11.2H137.81V28.9H134.31Z" fill="url(#paint1_linear_531_15)"></path><path d="M125.66 29.075C123.727 29.075 122.236 28.5834 121.186 27.6C120.152 26.6 119.635 25.1 119.635 23.1V15.725H123.135V22.85C123.135 23.45 123.219 23.9834 123.385 24.45C123.569 24.9 123.844 25.2584 124.211 25.525C124.594 25.7917 125.086 25.925 125.686 25.925C126.336 25.925 126.836 25.7834 127.186 25.5C127.536 25.2167 127.777 24.8417 127.91 24.375C128.044 23.8917 128.111 23.3834 128.111 22.85V15.725H131.586V23.1C131.586 25.1834 131.06 26.7 130.01 27.65C128.977 28.6 127.527 29.075 125.66 29.075Z" fill="url(#paint2_linear_531_15)"></path><path d="M109.871 28.9V15.725H113.021L113.246 17.3C113.579 16.8 113.954 16.425 114.371 16.175C114.788 15.9083 115.221 15.7333 115.671 15.65C116.121 15.55 116.579 15.5 117.046 15.5C117.263 15.5 117.463 15.5083 117.646 15.525C117.829 15.525 117.963 15.525 118.046 15.525V18.9H117.221C116.438 18.9 115.754 19.0333 115.171 19.3C114.588 19.5667 114.138 19.9833 113.821 20.55C113.521 21.1167 113.371 21.8417 113.371 22.725V28.9H109.871Z" fill="url(#paint3_linear_531_15)"></path><path d="M101.516 29.075C100.133 29.075 98.9579 28.8 97.9912 28.25C97.0245 27.7 96.2829 26.925 95.7662 25.925C95.2495 24.9083 94.9912 23.725 94.9912 22.375C94.9912 21.0083 95.2579 19.8167 95.7912 18.8C96.3245 17.7667 97.0745 16.9583 98.0412 16.375C99.0245 15.7917 100.183 15.5 101.516 15.5C102.516 15.5 103.391 15.6667 104.141 16C104.908 16.3333 105.55 16.8 106.066 17.4C106.6 18 106.991 18.7 107.241 19.5C107.508 20.2833 107.633 21.1333 107.616 22.05C107.616 22.2833 107.608 22.5083 107.591 22.725C107.575 22.9417 107.541 23.1583 107.491 23.375H98.4662C98.5162 23.875 98.6579 24.3333 98.8912 24.75C99.1245 25.1667 99.4495 25.5 99.8662 25.75C100.3 25.9833 100.833 26.1 101.466 26.1C101.883 26.1 102.266 26.0583 102.616 25.975C102.966 25.875 103.266 25.725 103.516 25.525C103.766 25.325 103.941 25.0917 104.041 24.825H107.491C107.275 25.8083 106.866 26.6167 106.266 27.25C105.683 27.8833 104.975 28.35 104.141 28.65C103.308 28.9333 102.433 29.075 101.516 29.075ZM98.5412 20.925H104.266C104.25 20.475 104.133 20.0583 103.916 19.675C103.716 19.275 103.408 18.9583 102.991 18.725C102.591 18.475 102.075 18.35 101.441 18.35C100.808 18.35 100.275 18.475 99.8412 18.725C99.4245 18.975 99.1079 19.3 98.8912 19.7C98.6912 20.0833 98.5745 20.4917 98.5412 20.925Z" fill="url(#paint4_linear_531_15)"></path><path d="M80.3545 28.9V11.2H83.8545V17.25C84.2378 16.8 84.6628 16.45 85.1295 16.2C85.6128 15.95 86.0962 15.775 86.5795 15.675C87.0795 15.5583 87.5378 15.5 87.9545 15.5C89.1878 15.5 90.1545 15.775 90.8545 16.325C91.5545 16.875 92.0545 17.6167 92.3545 18.55C92.6545 19.4833 92.8045 20.5083 92.8045 21.625V28.9H89.3045V22.125C89.3045 21.725 89.2628 21.325 89.1795 20.925C89.1128 20.525 88.9878 20.1583 88.8045 19.825C88.6212 19.475 88.3628 19.2 88.0295 19C87.6962 18.7833 87.2545 18.675 86.7045 18.675C86.1878 18.675 85.7462 18.7833 85.3795 19C85.0128 19.2167 84.7128 19.5083 84.4795 19.875C84.2628 20.225 84.1045 20.6167 84.0045 21.05C83.9045 21.4833 83.8545 21.9167 83.8545 22.35V28.9H80.3545Z" fill="url(#paint5_linear_531_15)"></path><path d="M64.7539 33.825V15.725H68.0289L68.2039 17.375C68.7372 16.725 69.3456 16.25 70.0289 15.95C70.7289 15.65 71.4956 15.5 72.3289 15.5C73.6289 15.5 74.7039 15.8 75.5539 16.4C76.4039 17 77.0372 17.8167 77.4539 18.85C77.8872 19.8667 78.1039 21.0083 78.1039 22.275C78.1039 23.575 77.8789 24.7417 77.4289 25.775C76.9956 26.7917 76.3372 27.6 75.4539 28.2C74.5706 28.7833 73.4706 29.075 72.1539 29.075C71.5872 29.075 71.0539 29.0083 70.5539 28.875C70.0539 28.7417 69.6122 28.5667 69.2289 28.35C68.8456 28.1167 68.5206 27.8583 68.2539 27.575V33.825H64.7539ZM71.5539 25.925C72.3372 25.925 72.9539 25.75 73.4039 25.4C73.8539 25.05 74.1706 24.6083 74.3539 24.075C74.5372 23.525 74.6289 22.9583 74.6289 22.375C74.6289 21.7417 74.5289 21.1417 74.3289 20.575C74.1289 20.0083 73.7956 19.5583 73.3289 19.225C72.8789 18.875 72.2622 18.7 71.4789 18.7C70.7789 18.7 70.1872 18.875 69.7039 19.225C69.2206 19.5583 68.8539 20 68.6039 20.55C68.3539 21.1 68.2289 21.6917 68.2289 22.325C68.2289 22.9583 68.3456 23.55 68.5789 24.1C68.8289 24.65 69.1956 25.0917 69.6789 25.425C70.1789 25.7583 70.8039 25.925 71.5539 25.925Z" fill="url(#paint6_linear_531_15)"></path><path d="M55.425 29.1C54.1917 29.1 53.0417 28.9083 51.975 28.525C50.925 28.1417 50.0417 27.5333 49.325 26.7C48.625 25.8667 48.1833 24.7917 48 23.475H51.65C51.8 24.0417 52.075 24.5 52.475 24.85C52.875 25.1833 53.35 25.425 53.9 25.575C54.4667 25.725 55.0583 25.8 55.675 25.8C56.1417 25.8 56.6 25.7417 57.05 25.625C57.5 25.5083 57.8667 25.3083 58.15 25.025C58.45 24.7417 58.6 24.3583 58.6 23.875C58.6 23.5083 58.5167 23.2083 58.35 22.975C58.2 22.7417 57.975 22.5583 57.675 22.425C57.3917 22.275 57.0417 22.1417 56.625 22.025C56.275 21.925 55.9083 21.8417 55.525 21.775C55.1583 21.7083 54.7917 21.625 54.425 21.525C54.075 21.425 53.7333 21.3083 53.4 21.175C52.7667 21.0083 52.1583 20.8083 51.575 20.575C50.9917 20.325 50.475 20.0167 50.025 19.65C49.575 19.2667 49.2167 18.7917 48.95 18.225C48.7 17.6583 48.575 16.975 48.575 16.175C48.575 15.3083 48.7167 14.575 49 13.975C49.3 13.375 49.6917 12.8833 50.175 12.5C50.675 12.1 51.225 11.7917 51.825 11.575C52.4417 11.3583 53.0583 11.2083 53.675 11.125C54.2917 11.0417 54.875 11 55.425 11C56.575 11 57.6083 11.2 58.525 11.6C59.4417 12 60.1917 12.6 60.775 13.4C61.3583 14.2 61.6917 15.2083 61.775 16.425H58.3C58.2333 15.925 58.05 15.5167 57.75 15.2C57.45 14.8833 57.0667 14.65 56.6 14.5C56.15 14.35 55.6417 14.275 55.075 14.275C54.7083 14.275 54.35 14.3083 54 14.375C53.65 14.4417 53.3333 14.55 53.05 14.7C52.7833 14.8333 52.5667 15.0167 52.4 15.25C52.25 15.4833 52.175 15.7667 52.175 16.1C52.175 16.4333 52.2667 16.725 52.45 16.975C52.6333 17.2083 52.9 17.4167 53.25 17.6C53.6167 17.7667 54.0417 17.925 54.525 18.075C55.025 18.2417 55.55 18.375 56.1 18.475C56.65 18.575 57.175 18.7083 57.675 18.875C58.3083 19.0417 58.9 19.2417 59.45 19.475C60 19.6917 60.4833 19.975 60.9 20.325C61.3167 20.6583 61.6417 21.0917 61.875 21.625C62.1083 22.1417 62.225 22.7833 62.225 23.55C62.225 24.5667 62.0333 25.4333 61.65 26.15C61.2833 26.85 60.775 27.4167 60.125 27.85C59.4917 28.2833 58.7667 28.6 57.95 28.8C57.1333 29 56.2917 29.1 55.425 29.1Z" fill="url(#paint7_linear_531_15)"></path><path d="M33.1741 14.787C34.9489 15.3704 36.5453 16.2705 37.8686 17.4047L37.8856 17.4189C40.3104 19.4985 41.8163 22.3656 41.8163 25.5168C41.8163 28.678 40.3104 31.5504 37.8856 33.6294C37.7908 33.7104 37.6924 33.7873 37.5913 33.8593C35.1844 35.8037 31.955 37 28.425 37H8L16.8259 29.2125H28.425C33.9426 29.2125 34.6631 23.3631 30.1209 21.858C29.5911 21.7238 29.0157 21.6654 28.417 21.6654H25.3793L33.1741 14.787Z" fill="url(#paint8_linear_531_15)"></path><path d="M16.8259 29.2125C15.0506 28.6291 13.4541 27.729 12.1308 26.5947L12.1139 26.5811C9.6896 24.501 8.18315 21.6339 8.18315 18.4827C8.18315 15.3215 9.6896 12.4496 12.1144 10.37C12.2092 10.289 12.3076 10.2122 12.4087 10.1401C14.8156 8.1963 18.045 7 21.575 7H42L33.1741 14.787H21.575C16.0568 14.787 15.3369 20.6364 19.8791 22.141C20.4084 22.2757 20.9843 22.3335 21.583 22.3335H24.6207L16.8259 29.2125Z" fill="url(#paint9_linear_531_15)"></path><defs><linearGradient id="paint0_linear_531_15" x1="48" y1="11" x2="57.4995" y2="54.5793" gradientUnits="userSpaceOnUse"><stop stop-color="#02CE80"></stop><stop offset="1" stop-color="#7BD706"></stop></linearGradient><linearGradient id="paint1_linear_531_15" x1="48" y1="11" x2="57.4995" y2="54.5793" gradientUnits="userSpaceOnUse"><stop stop-color="#02CE80"></stop><stop offset="1" stop-color="#7BD706"></stop></linearGradient><linearGradient id="paint2_linear_531_15" x1="48" y1="11" x2="57.4995" y2="54.5793" gradientUnits="userSpaceOnUse"><stop stop-color="#02CE80"></stop><stop offset="1" stop-color="#7BD706"></stop></linearGradient><linearGradient id="paint3_linear_531_15" x1="48" y1="11" x2="57.4995" y2="54.5793" gradientUnits="userSpaceOnUse"><stop stop-color="#02CE80"></stop><stop offset="1" stop-color="#7BD706"></stop></linearGradient><linearGradient id="paint4_linear_531_15" x1="48" y1="11" x2="57.4995" y2="54.5793" gradientUnits="userSpaceOnUse"><stop stop-color="#02CE80"></stop><stop offset="1" stop-color="#7BD706"></stop></linearGradient><linearGradient id="paint5_linear_531_15" x1="48" y1="11" x2="57.4995" y2="54.5793" gradientUnits="userSpaceOnUse"><stop stop-color="#02CE80"></stop><stop offset="1" stop-color="#7BD706"></stop></linearGradient><linearGradient id="paint6_linear_531_15" x1="48" y1="11" x2="57.4995" y2="54.5793" gradientUnits="userSpaceOnUse"><stop stop-color="#02CE80"></stop><stop offset="1" stop-color="#7BD706"></stop></linearGradient><linearGradient id="paint7_linear_531_15" x1="48" y1="11" x2="57.4995" y2="54.5793" gradientUnits="userSpaceOnUse"><stop stop-color="#02CE80"></stop><stop offset="1" stop-color="#7BD706"></stop></linearGradient><linearGradient id="paint8_linear_531_15" x1="8" y1="7" x2="37.7665" y2="40.7354" gradientUnits="userSpaceOnUse"><stop stop-color="#02CE80"></stop><stop offset="1" stop-color="#7BD706"></stop></linearGradient><linearGradient id="paint9_linear_531_15" x1="8" y1="7" x2="37.7665" y2="40.7354" gradientUnits="userSpaceOnUse"><stop stop-color="#02CE80"></stop><stop offset="1" stop-color="#7BD706"></stop></linearGradient></defs></svg>