<svg xmlns="http://www.w3.org/2000/svg" width="160" height="40" viewBox="0 0 160 40" fill="none"><path d="M150.606 29.0047C149.492 29.0047 148.554 28.8696 147.794 28.5993C147.051 28.329 146.485 27.8729 146.096 27.231C145.725 26.5723 145.539 25.677 145.539 24.5452V18.8187H143.562V15.6515H145.539V12.0788H149.086V15.6515H152V18.8187H149.086V24.0384C149.086 24.5959 149.187 25.0351 149.39 25.356C149.593 25.677 150.049 25.8374 150.758 25.8374H151.873V29.0047H150.606Z" fill="url(#paint0_linear_531_21)"></path><path d="M135.616 29.182C134.264 29.182 133.082 28.9117 132.068 28.3712C131.055 27.8137 130.269 27.0282 129.712 26.0147C129.154 24.9843 128.876 23.768 128.876 22.366C128.876 20.9301 129.154 19.697 129.712 18.6666C130.286 17.6193 131.08 16.8169 132.094 16.2595C133.107 15.702 134.273 15.4233 135.59 15.4233C136.942 15.4233 138.116 15.7105 139.112 16.2848C140.109 16.8591 140.886 17.6615 141.443 18.6919C142.001 19.7224 142.28 20.9555 142.28 22.3913C142.28 23.7934 142.001 25.0096 141.443 26.04C140.903 27.0536 140.134 27.8306 139.138 28.3712C138.158 28.9117 136.984 29.182 135.616 29.182ZM135.565 25.9387C136.342 25.9387 136.967 25.7698 137.44 25.4319C137.913 25.0941 138.251 24.6549 138.453 24.1143C138.673 23.5569 138.783 22.9741 138.783 22.366C138.783 21.7579 138.673 21.1751 138.453 20.6176C138.251 20.0602 137.913 19.6041 137.44 19.2494C136.984 18.8777 136.359 18.6919 135.565 18.6919C134.805 18.6919 134.188 18.8777 133.715 19.2494C133.242 19.6041 132.896 20.0602 132.676 20.6176C132.474 21.1751 132.372 21.7579 132.372 22.366C132.372 22.991 132.474 23.5738 132.676 24.1143C132.896 24.6549 133.242 25.0941 133.715 25.4319C134.188 25.7698 134.805 25.9387 135.565 25.9387Z" fill="url(#paint1_linear_531_21)"></path><path d="M114.041 29.0047V11.0652H117.588V17.197C117.977 16.741 118.407 16.3862 118.88 16.1328C119.37 15.8795 119.86 15.7021 120.35 15.6007C120.857 15.4825 121.321 15.4234 121.744 15.4234C122.994 15.4234 123.973 15.7021 124.683 16.2595C125.392 16.817 125.899 17.5687 126.203 18.5146C126.507 19.4606 126.659 20.4995 126.659 21.6312V29.0047H123.112V22.138C123.112 21.7326 123.07 21.3272 122.985 20.9218C122.918 20.5164 122.791 20.1447 122.605 19.8069C122.419 19.4522 122.158 19.1734 121.82 18.9707C121.482 18.7511 121.034 18.6413 120.477 18.6413C119.953 18.6413 119.505 18.7511 119.134 18.9707C118.762 19.1903 118.458 19.4859 118.222 19.8576C118.002 20.2123 117.842 20.6093 117.74 21.0485C117.639 21.4877 117.588 21.9269 117.588 22.3661V29.0047H114.041Z" fill="url(#paint2_linear_531_21)"></path><path d="M106.27 29.182C105.645 29.182 105.003 29.1144 104.344 28.9793C103.685 28.8441 103.077 28.6161 102.52 28.2951C101.962 27.9573 101.489 27.5097 101.101 26.9522C100.712 26.3779 100.459 25.6684 100.341 24.8238H103.939C104.04 25.1279 104.217 25.3897 104.471 25.6093C104.741 25.8289 105.045 25.9894 105.383 26.0907C105.738 26.1921 106.092 26.2427 106.447 26.2427C106.684 26.2427 106.92 26.2258 107.157 26.1921C107.393 26.1583 107.613 26.0907 107.815 25.9894C108.018 25.888 108.179 25.7613 108.297 25.6093C108.415 25.4404 108.474 25.2292 108.474 24.9758C108.474 24.7056 108.39 24.4944 108.221 24.3424C108.052 24.1903 107.815 24.0721 107.511 23.9876C107.207 23.8863 106.861 23.7934 106.472 23.7089C105.78 23.5569 105.037 23.388 104.243 23.2021C103.449 23.0163 102.765 22.7461 102.19 22.3913C101.954 22.2224 101.743 22.0366 101.557 21.8339C101.371 21.6312 101.219 21.4031 101.101 21.1497C100.982 20.8964 100.89 20.6345 100.822 20.3643C100.754 20.0771 100.721 19.773 100.721 19.4521C100.721 18.7257 100.873 18.1092 101.177 17.6024C101.498 17.0787 101.92 16.6564 102.444 16.3355C102.967 16.0145 103.55 15.7865 104.192 15.6513C104.834 15.4993 105.493 15.4233 106.168 15.4233C107.081 15.4233 107.925 15.5753 108.702 15.8794C109.479 16.1666 110.121 16.6226 110.628 17.2477C111.135 17.8558 111.447 18.6497 111.565 19.6294H108.17C108.102 19.2578 107.874 18.9622 107.486 18.7426C107.097 18.5061 106.616 18.3879 106.042 18.3879C105.839 18.3879 105.619 18.4048 105.383 18.4385C105.163 18.4723 104.961 18.5315 104.775 18.6159C104.589 18.7004 104.437 18.8186 104.319 18.9707C104.2 19.1058 104.141 19.2916 104.141 19.5281C104.141 19.7139 104.192 19.8828 104.293 20.0349C104.412 20.1869 104.572 20.3136 104.775 20.4149C104.994 20.5163 105.256 20.6092 105.56 20.6937C106.135 20.8288 106.709 20.9555 107.283 21.0737C107.874 21.1751 108.398 21.2849 108.854 21.4031C109.412 21.5214 109.918 21.7156 110.374 21.9859C110.847 22.2562 111.228 22.6278 111.515 23.1008C111.819 23.5569 111.971 24.1566 111.971 24.8998C111.971 25.7444 111.802 26.4454 111.464 27.0029C111.126 27.5434 110.67 27.9742 110.096 28.2951C109.538 28.6161 108.922 28.8441 108.246 28.9793C107.587 29.1144 106.928 29.182 106.27 29.182Z" fill="url(#paint3_linear_531_21)"></path><path d="M95.8079 29.182C94.3045 29.182 93.1896 28.7597 92.4632 27.9151C91.7538 27.0705 91.399 25.9133 91.399 24.4437V18.8186H89.3973V15.6513H91.399V12.0533H94.9464V15.6513H99.0005V18.8186H94.9464V23.7089C94.9464 24.1481 94.9971 24.5282 95.0984 24.8491C95.2167 25.1701 95.4025 25.4235 95.6559 25.6093C95.9261 25.7782 96.2893 25.8627 96.7454 25.8627C97.1508 25.8627 97.4887 25.8035 97.7589 25.6853C98.0461 25.5502 98.2826 25.4066 98.4684 25.2545L99.5833 27.9911C99.2286 28.2782 98.8316 28.5147 98.3924 28.7005C97.9701 28.8695 97.5393 28.9877 97.1001 29.0553C96.661 29.1397 96.2302 29.182 95.8079 29.182Z" fill="url(#paint4_linear_531_21)"></path><path d="M82.5893 29.182C81.9643 29.182 81.3224 29.1144 80.6636 28.9793C80.0048 28.8441 79.3967 28.6161 78.8392 28.2951C78.2818 27.9573 77.8088 27.5097 77.4203 26.9522C77.0318 26.3779 76.7784 25.6684 76.6601 24.8238H80.2582C80.3595 25.1279 80.5369 25.3897 80.7903 25.6093C81.0605 25.8289 81.3646 25.9894 81.7024 26.0907C82.0572 26.1921 82.4119 26.2427 82.7667 26.2427C83.0031 26.2427 83.2396 26.2258 83.4761 26.1921C83.7126 26.1583 83.9322 26.0907 84.1349 25.9894C84.3376 25.888 84.4981 25.7613 84.6163 25.6093C84.7346 25.4404 84.7937 25.2292 84.7937 24.9758C84.7937 24.7056 84.7093 24.4944 84.5403 24.3424C84.3714 24.1903 84.1349 24.0721 83.8309 23.9876C83.5268 23.8863 83.1805 23.7934 82.792 23.7089C82.0994 23.5569 81.3562 23.388 80.5622 23.2021C79.7683 23.0163 79.0842 22.7461 78.5098 22.3913C78.2733 22.2224 78.0622 22.0366 77.8764 21.8339C77.6905 21.6312 77.5385 21.4031 77.4203 21.1497C77.302 20.8964 77.2091 20.6345 77.1416 20.3643C77.074 20.0771 77.0402 19.773 77.0402 19.4521C77.0402 18.7257 77.1922 18.1092 77.4963 17.6024C77.8172 17.0787 78.2395 16.6564 78.7632 16.3355C79.2869 16.0145 79.8696 15.7865 80.5115 15.6513C81.1534 15.4993 81.8122 15.4233 82.4879 15.4233C83.4001 15.4233 84.2447 15.5753 85.0218 15.8794C85.7988 16.1666 86.4407 16.6226 86.9475 17.2477C87.4542 17.8558 87.7667 18.6497 87.885 19.6294H84.4897C84.4221 19.2578 84.194 18.9622 83.8055 18.7426C83.417 18.5061 82.9356 18.3879 82.3612 18.3879C82.1585 18.3879 81.9389 18.4048 81.7024 18.4385C81.4828 18.4723 81.2801 18.5315 81.0943 18.6159C80.9085 18.7004 80.7565 18.8186 80.6382 18.9707C80.52 19.1058 80.4609 19.2916 80.4609 19.5281C80.4609 19.7139 80.5115 19.8828 80.6129 20.0349C80.7311 20.1869 80.8916 20.3136 81.0943 20.4149C81.3139 20.5163 81.5758 20.6092 81.8798 20.6937C82.4541 20.8288 83.0285 20.9555 83.6028 21.0737C84.194 21.1751 84.7177 21.2849 85.1738 21.4031C85.7312 21.5214 86.238 21.7156 86.6941 21.9859C87.1671 22.2562 87.5471 22.6278 87.8343 23.1008C88.1384 23.5569 88.2904 24.1566 88.2904 24.8998C88.2904 25.7444 88.1215 26.4454 87.7836 27.0029C87.4458 27.5434 86.9897 27.9742 86.4154 28.2951C85.8579 28.6161 85.2414 28.8441 84.5657 28.9793C83.9069 29.1144 83.2481 29.182 82.5893 29.182Z" fill="url(#paint5_linear_531_21)"></path><path d="M67.1996 29.1821C66.5915 29.1821 66.0003 29.1061 65.4259 28.9541C64.8685 28.7851 64.3702 28.5318 63.931 28.1939C63.4918 27.8561 63.1455 27.4338 62.8921 26.927C62.6387 26.4202 62.512 25.829 62.512 25.1533C62.512 24.2411 62.6978 23.5148 63.0695 22.9742C63.4411 22.4168 63.9394 21.9945 64.5644 21.7073C65.1894 21.4201 65.9074 21.2259 66.7182 21.1245C67.5459 21.0232 68.399 20.9725 69.2774 20.9725H71.2031C71.2031 20.4826 71.1102 20.0519 70.9243 19.6802C70.7554 19.2917 70.4936 18.9961 70.1389 18.7934C69.7841 18.5738 69.328 18.464 68.7706 18.464C68.4159 18.464 68.0696 18.5147 67.7317 18.616C67.4108 18.7005 67.1405 18.8272 66.9209 18.9961C66.7013 19.165 66.5577 19.3846 66.4901 19.6549H62.8921C62.9935 18.9117 63.2299 18.2782 63.6016 17.7545C63.9732 17.214 64.4377 16.7748 64.9952 16.4369C65.5526 16.0991 66.1607 15.8542 66.8195 15.7021C67.4952 15.5332 68.1878 15.4488 68.8973 15.4488C70.8399 15.4488 72.2757 16.0062 73.2048 17.1211C74.1339 18.2191 74.5984 19.7816 74.5984 21.8087V29.0047H71.4058L71.3551 27.2817C70.9328 27.873 70.4514 28.3037 69.9108 28.574C69.3872 28.8443 68.8804 29.0132 68.3905 29.0807C67.9006 29.1483 67.5037 29.1821 67.1996 29.1821ZM68.0104 26.3696C68.6017 26.3696 69.1422 26.2513 69.6321 26.0148C70.122 25.7783 70.5105 25.4574 70.7976 25.052C71.0848 24.6465 71.2284 24.1905 71.2284 23.6837V23.3543H68.7959C68.4412 23.3543 68.0949 23.3712 67.7571 23.405C67.4361 23.4388 67.1405 23.5063 66.8702 23.6077C66.6168 23.6921 66.4141 23.8357 66.2621 24.0384C66.1101 24.2411 66.0341 24.5114 66.0341 24.8493C66.0341 25.1871 66.1185 25.4743 66.2874 25.7108C66.4732 25.9304 66.7182 26.0993 67.0222 26.2175C67.3263 26.3189 67.6557 26.3696 68.0104 26.3696Z" fill="url(#paint6_linear_531_21)"></path><path d="M48.95 29.0047V11.0652H61.7204V14.4352H52.5733V19.0721H60.3015V22.4167H52.5733V29.0047H48.95Z" fill="url(#paint7_linear_531_21)"></path><path d="M28.76 3H19.24C12.4802 3 7 8.48023 7 15.24V24.76C7 31.5198 12.4802 37 19.24 37H28.76C35.5198 37 41 31.5198 41 24.76V15.24C41 8.48023 35.5198 3 28.76 3ZM29.5488 22.5545C29.4003 22.5868 29.2519 22.6027 29.0807 22.5953C28.8314 22.5846 28.5362 22.5222 28.127 22.3868C28.1185 22.3828 28.1106 22.3783 28.1021 22.3749C27.2425 22.24 26.3454 22.2508 25.4422 22.4287C24.6256 22.5897 23.8657 22.8753 23.1772 23.2612C23.1523 23.2753 23.1273 23.2889 23.103 23.3031C23.0758 23.319 23.0486 23.3348 23.0219 23.3507C22.9902 23.3694 22.9579 23.3887 22.9262 23.4085C22.8927 23.4289 22.8587 23.4499 22.8253 23.4708C22.8038 23.4844 22.7822 23.4986 22.7607 23.5128C22.7346 23.5298 22.7086 23.5468 22.6831 23.5638C22.661 23.5785 22.6394 23.5932 22.6179 23.608C22.5924 23.6255 22.5669 23.6431 22.5414 23.6607C22.521 23.6748 22.5 23.6896 22.4796 23.7037C22.4507 23.7247 22.4218 23.7457 22.3929 23.7672C22.3771 23.7791 22.3606 23.791 22.3442 23.8029C22.3011 23.8346 22.2592 23.8675 22.2167 23.9004C22.2003 23.9134 22.1838 23.9264 22.1674 23.9395C22.1396 23.9616 22.1119 23.9837 22.0847 24.0063C22.0665 24.0211 22.049 24.0358 22.0314 24.0505C22.0053 24.0726 21.9793 24.0942 21.9532 24.1168C21.9362 24.1316 21.9192 24.1457 21.9028 24.1605C21.8733 24.186 21.8444 24.212 21.8155 24.2381C21.803 24.2494 21.79 24.2608 21.7775 24.2721C21.7367 24.3089 21.6971 24.3463 21.6574 24.3843C21.6461 24.3951 21.6353 24.4058 21.624 24.4166C21.5945 24.4449 21.5656 24.4733 21.5367 24.5016C21.5225 24.5158 21.5084 24.5299 21.4942 24.5441C21.4681 24.5707 21.4415 24.5974 21.416 24.6246C21.4024 24.6387 21.3888 24.6529 21.3752 24.6671C21.3469 24.6971 21.3185 24.7277 21.2902 24.7583C21.2806 24.7691 21.2704 24.7793 21.2607 24.79C21.2233 24.8314 21.1859 24.8733 21.1491 24.9158C21.1429 24.9232 21.1366 24.9306 21.1304 24.9379C21.0998 24.9731 21.0698 25.0088 21.0403 25.0445C21.0295 25.0575 21.0188 25.0711 21.0074 25.0841C20.9819 25.1153 20.957 25.1465 20.9321 25.1776C20.9213 25.1912 20.9105 25.2048 20.8998 25.219C20.8731 25.253 20.8465 25.2876 20.8204 25.3221C20.8125 25.3323 20.8051 25.3425 20.7972 25.3527C20.7626 25.3986 20.7292 25.4451 20.6958 25.4921C20.6952 25.4933 20.6941 25.4944 20.6935 25.4955C20.6618 25.5403 20.6306 25.5856 20.5994 25.631C20.5915 25.6429 20.5836 25.6548 20.5756 25.6667C20.5518 25.7024 20.528 25.7381 20.5048 25.7743C20.4963 25.7874 20.4878 25.801 20.4793 25.814C20.4549 25.852 20.4311 25.8899 20.4079 25.9285C20.4017 25.9387 20.3954 25.9483 20.3898 25.9585C20.3303 26.0565 20.2725 26.1557 20.2175 26.2566C20.2118 26.2668 20.2062 26.277 20.2011 26.2872C20.1795 26.3274 20.158 26.3676 20.137 26.4079C20.1302 26.4203 20.124 26.4334 20.1172 26.4458C20.0962 26.4866 20.0758 26.528 20.0554 26.5694C20.0503 26.5796 20.0452 26.5892 20.0407 26.5994C19.9903 26.7037 19.9421 26.8091 19.8962 26.9156C19.8928 26.9241 19.8894 26.932 19.886 26.9405C19.8673 26.9847 19.8486 27.0295 19.8305 27.0743C19.8254 27.0867 19.8208 27.0986 19.8157 27.1111C19.7987 27.1547 19.7817 27.1984 19.7653 27.242C19.7613 27.2522 19.7574 27.2624 19.7534 27.2726C19.7126 27.382 19.6741 27.493 19.6384 27.6047C19.6367 27.6109 19.6344 27.6166 19.6327 27.6228C19.6174 27.6715 19.6021 27.7203 19.5879 27.7696C19.5845 27.7815 19.5811 27.7934 19.5777 27.8047C19.5647 27.85 19.5517 27.8959 19.5392 27.9418C19.5364 27.9526 19.5335 27.9634 19.5307 27.9736C19.5007 28.088 19.4729 28.2031 19.4474 28.3187C19.4468 28.3221 19.4463 28.3249 19.4457 28.3283C19.4344 28.3816 19.4236 28.4348 19.4134 28.4887C19.4111 28.5 19.4089 28.5113 19.4072 28.5227C19.3981 28.5703 19.3896 28.6179 19.3817 28.6655C19.38 28.6762 19.3777 28.6876 19.376 28.6983C19.3669 28.7539 19.3584 28.81 19.3505 28.8661C19.3505 28.8672 19.3499 28.8689 19.3499 28.87C19.3335 28.989 19.3199 29.1086 19.3086 29.2282C19.3074 29.2384 19.3069 29.2491 19.3057 29.2593C19.3012 29.3086 19.2978 29.3579 19.2944 29.4072C19.2938 29.4186 19.2927 29.4299 19.2921 29.4412C19.2887 29.4962 19.2859 29.5512 19.2836 29.6061C19.2836 29.6101 19.2831 29.6135 19.2831 29.6175C19.278 29.7387 19.2763 29.8606 19.2774 29.983C19.2774 29.9926 19.2774 30.0022 19.278 30.0124C19.2785 30.0634 19.2797 30.1139 19.2814 30.1649C19.2819 30.1762 19.2819 30.1881 19.2825 30.1994C19.2848 30.2538 19.287 30.3077 19.2904 30.3621C19.291 30.3677 19.291 30.3728 19.2916 30.3785C19.2989 30.502 19.3097 30.6256 19.3233 30.7497C19.3244 30.7576 19.325 30.7661 19.3261 30.774C19.3318 30.8267 19.3386 30.8794 19.3454 30.9321C19.3471 30.9435 19.3482 30.9542 19.3499 30.9656C19.3573 31.0194 19.3652 31.0738 19.3743 31.1276C19.3754 31.1344 19.3766 31.1412 19.3777 31.1475C19.3879 31.2098 19.3987 31.2721 19.4106 31.3345C19.41 31.3339 19.41 31.3333 19.4094 31.3333C19.4089 31.3328 19.4089 31.3322 19.4083 31.3316C19.3669 31.2857 19.3267 31.2387 19.2865 31.1911C19.2882 31.1934 19.2893 31.1956 19.291 31.1979C19.2831 31.1888 19.2757 31.1792 19.2678 31.1696C19.2485 31.1469 19.2298 31.1237 19.2111 31.101C19.1799 31.063 19.1488 31.0251 19.1182 30.9865C19.0995 30.9627 19.0808 30.9384 19.0621 30.9146C19.032 30.876 19.0026 30.8375 18.9737 30.7984C18.9555 30.7735 18.9374 30.7491 18.9193 30.7242C18.8909 30.6845 18.8626 30.6448 18.8348 30.6052C18.8173 30.5802 18.8003 30.5547 18.7833 30.5292C18.7561 30.4884 18.7289 30.4476 18.7022 30.4068C18.6858 30.3813 18.6694 30.3553 18.6529 30.3292C18.6269 30.2873 18.6008 30.2453 18.5753 30.2028C18.56 30.1768 18.5441 30.1513 18.5294 30.1246C18.5039 30.0816 18.4795 30.0379 18.4552 29.9937C18.4404 29.9677 18.4263 29.9416 18.4121 29.9155C18.3877 29.8708 18.3645 29.8254 18.3407 29.7801C18.3271 29.754 18.3141 29.728 18.301 29.7019C18.2778 29.6554 18.2551 29.6084 18.233 29.5614C18.2211 29.5359 18.2087 29.5098 18.1968 29.4843C18.1747 29.4356 18.1531 29.3868 18.1322 29.3375C18.1214 29.312 18.1101 29.2871 18.0993 29.2616C18.0783 29.2106 18.0579 29.1596 18.0375 29.108C18.0279 29.0837 18.0183 29.0593 18.0086 29.0349C17.9882 28.9811 17.969 28.9267 17.9497 28.8723C17.9418 28.8496 17.9333 28.827 17.9253 28.8037C17.9055 28.7459 17.8868 28.6876 17.8687 28.6286C17.8624 28.6088 17.8556 28.589 17.8494 28.5686C17.8296 28.5034 17.8109 28.4377 17.7927 28.3719C17.7888 28.3578 17.7848 28.3442 17.7808 28.3306C17.7372 28.1685 17.6987 28.0042 17.6658 27.837C16.8793 23.8426 19.4797 19.9666 23.4741 19.18C23.477 19.1795 23.4792 19.1789 23.4821 19.1789C23.5597 19.1636 23.6379 19.1494 23.7155 19.137C23.7575 19.1302 23.8 19.1245 23.8419 19.1183C23.8799 19.1126 23.9178 19.1064 23.9558 19.1018C24.0079 19.095 24.0601 19.0899 24.1128 19.0843C24.1405 19.0814 24.1677 19.0775 24.1955 19.0752C24.2527 19.0695 24.31 19.0656 24.3678 19.061C24.3899 19.0593 24.412 19.0571 24.4341 19.0559C24.4947 19.052 24.5553 19.0497 24.616 19.0474C24.6347 19.0469 24.6534 19.0452 24.6715 19.0446C24.7338 19.0423 24.7956 19.0418 24.8579 19.0418C24.8744 19.0418 24.8914 19.0412 24.9084 19.0412C24.9713 19.0412 25.0336 19.0423 25.0959 19.044C25.1118 19.0446 25.1277 19.0446 25.1441 19.0452C25.2064 19.0474 25.2688 19.0508 25.3311 19.0542C25.3453 19.0548 25.3589 19.0554 25.373 19.0565H25.3725C25.3827 19.0571 25.3929 19.0576 25.4025 19.0582C25.4014 19.0565 25.3997 19.0554 25.3985 19.0537C25.6671 19.0718 25.9329 19.1041 26.1947 19.1511C26.2808 19.1664 26.367 19.1834 26.4525 19.2021C26.7704 19.2713 27.0725 19.0219 27.0606 18.6961C27.0509 18.4422 27.0022 18.2365 27.0022 18.2365C27.5978 18.5233 27.9967 19.35 27.9967 19.35C29.0218 19.817 29.1929 20.1949 29.1799 20.4103C29.1799 20.4114 29.1799 20.4125 29.1793 20.4131C29.1793 20.4193 29.1788 20.425 29.1782 20.4307C29.1601 20.5825 29.2213 20.7333 29.3374 20.8324C29.7755 21.2064 30.4005 21.5498 30.4719 21.5889C30.473 21.5895 30.4736 21.5906 30.4747 21.5912C30.4759 21.5923 30.4776 21.594 30.4781 21.5957C30.4379 22.1658 29.8259 22.4945 29.5488 22.5545ZM30.4719 10.4964C30.4186 12.014 29.8486 13.3921 28.9362 14.4671C28.5226 14.9544 28.0454 15.3312 27.5258 15.6293H27.5252C26.197 16.3909 24.5933 16.6351 23.0724 16.8924C21.4398 17.1684 19.8418 17.6602 18.6892 18.9148C18.6405 18.9681 18.5504 19.0633 18.445 19.1812C18.445 19.1812 18.445 19.1817 18.4444 19.1817C18.352 19.2849 18.2472 19.405 18.1463 19.5291C18.1463 19.5291 18.1463 19.5297 18.1458 19.5297C18.0449 19.6538 17.9486 19.7824 17.8726 19.9014C17.8726 19.9014 17.8726 19.902 17.8721 19.902C17.7984 20.0181 17.7446 20.1252 17.7247 20.2119C17.7242 20.2148 17.723 20.2182 17.7225 20.221C17.7208 20.2306 17.7191 20.2403 17.7185 20.2493C17.7179 20.2522 17.7179 20.255 17.7174 20.2578C17.7157 20.2799 17.7168 20.3003 17.7213 20.3185C17.7185 20.3077 17.7162 20.2969 17.7134 20.2856C17.7134 20.2862 17.7134 20.2862 17.7134 20.2867C17.7128 20.2856 17.7128 20.2839 17.7123 20.2828V20.2833C17.7049 20.2544 17.6987 20.2244 17.6919 20.1955C17.6834 20.1581 17.6743 20.1213 17.6658 20.0833C17.6647 20.0788 17.6635 20.0742 17.6624 20.0697C17.6539 20.0306 17.6471 19.9904 17.6392 19.9507C17.6335 19.9224 17.6278 19.894 17.6227 19.8651C17.6216 19.86 17.6205 19.8549 17.6199 19.8504C17.6114 19.8028 17.6046 19.7552 17.5972 19.7076C17.5938 19.6861 17.5904 19.6651 17.587 19.6436C17.5865 19.6385 17.5853 19.6339 17.5848 19.6288C17.5768 19.5739 17.5706 19.5189 17.5644 19.4639C17.5627 19.4486 17.5604 19.4333 17.5587 19.418C17.5581 19.4135 17.5576 19.409 17.557 19.405C17.5502 19.3432 17.5451 19.2809 17.5406 19.218V19.2174C17.54 19.2084 17.5389 19.1993 17.5383 19.1897C17.5383 19.1857 17.5377 19.1823 17.5372 19.1783C17.5326 19.1171 17.5298 19.0554 17.5275 18.9936C17.527 18.9823 17.5264 18.9709 17.5258 18.959C17.5258 18.959 17.5258 18.959 17.5258 18.9585C17.5258 18.9556 17.5253 18.9528 17.5253 18.95C17.523 18.8927 17.523 18.8349 17.5224 18.7771C17.5224 18.7579 17.5213 18.7386 17.5213 18.7193C17.5213 18.6423 17.5224 18.5652 17.5253 18.4876C17.5785 16.9695 18.1492 15.5913 19.0609 14.5164C20.6442 12.6503 22.8162 12.4344 25.0925 12.1233C25.3011 12.095 25.5073 12.0593 25.7096 12.0168C25.7147 12.0157 25.7198 12.0145 25.7249 12.0134C25.7873 12.0004 25.849 11.9862 25.9108 11.972C25.9425 11.9647 25.9743 11.9562 26.006 11.9482C26.0406 11.9397 26.0757 11.9312 26.1097 11.9222C26.1635 11.908 26.2168 11.8927 26.2701 11.878C26.282 11.8746 26.2944 11.8712 26.3063 11.8678C28.0024 11.3742 29.423 10.3383 30.2702 8.6729C30.2707 8.67233 30.2707 8.6712 30.2713 8.67063C30.2719 8.6695 30.273 8.6678 30.2736 8.66667C30.426 9.25033 30.4946 9.86403 30.4719 10.4964Z" fill="url(#paint8_linear_531_21)"></path><defs><linearGradient id="paint0_linear_531_21" x1="48.95" y1="11.0652" x2="55.1291" y2="46.2127" gradientUnits="userSpaceOnUse"><stop stop-color="#02CE80"></stop><stop offset="1" stop-color="#7BD706"></stop></linearGradient><linearGradient id="paint1_linear_531_21" x1="48.95" y1="11.0652" x2="55.1291" y2="46.2127" gradientUnits="userSpaceOnUse"><stop stop-color="#02CE80"></stop><stop offset="1" stop-color="#7BD706"></stop></linearGradient><linearGradient id="paint2_linear_531_21" x1="48.95" y1="11.0652" x2="55.1291" y2="46.2127" gradientUnits="userSpaceOnUse"><stop stop-color="#02CE80"></stop><stop offset="1" stop-color="#7BD706"></stop></linearGradient><linearGradient id="paint3_linear_531_21" x1="48.95" y1="11.0652" x2="55.1291" y2="46.2127" gradientUnits="userSpaceOnUse"><stop stop-color="#02CE80"></stop><stop offset="1" stop-color="#7BD706"></stop></linearGradient><linearGradient id="paint4_linear_531_21" x1="48.95" y1="11.0652" x2="55.1291" y2="46.2127" gradientUnits="userSpaceOnUse"><stop stop-color="#02CE80"></stop><stop offset="1" stop-color="#7BD706"></stop></linearGradient><linearGradient id="paint5_linear_531_21" x1="48.95" y1="11.0652" x2="55.1291" y2="46.2127" gradientUnits="userSpaceOnUse"><stop stop-color="#02CE80"></stop><stop offset="1" stop-color="#7BD706"></stop></linearGradient><linearGradient id="paint6_linear_531_21" x1="48.95" y1="11.0652" x2="55.1291" y2="46.2127" gradientUnits="userSpaceOnUse"><stop stop-color="#02CE80"></stop><stop offset="1" stop-color="#7BD706"></stop></linearGradient><linearGradient id="paint7_linear_531_21" x1="48.95" y1="11.0652" x2="55.1291" y2="46.2127" gradientUnits="userSpaceOnUse"><stop stop-color="#02CE80"></stop><stop offset="1" stop-color="#7BD706"></stop></linearGradient><linearGradient id="paint8_linear_531_21" x1="7" y1="3" x2="41" y2="37" gradientUnits="userSpaceOnUse"><stop stop-color="#02CE80"></stop><stop offset="1" stop-color="#7BD706"></stop></linearGradient></defs></svg>