<svg xmlns="http://www.w3.org/2000/svg" width="180" height="40" viewBox="0 0 180 40" fill="none"><path d="M173.036 28.1751C171.702 28.1751 170.536 27.9084 169.536 27.3751C168.536 26.8251 167.761 26.0501 167.211 25.0501C166.661 24.0334 166.386 22.8334 166.386 21.4501C166.386 20.0334 166.661 18.8168 167.211 17.8001C167.777 16.7668 168.561 15.9751 169.561 15.4251C170.561 14.8751 171.711 14.6001 173.011 14.6001C174.344 14.6001 175.502 14.8834 176.486 15.4501C177.469 16.0168 178.236 16.8084 178.786 17.8251C179.336 18.8418 179.611 20.0584 179.611 21.4751C179.611 22.8584 179.336 24.0584 178.786 25.0751C178.252 26.0751 177.494 26.8418 176.511 27.3751C175.544 27.9084 174.386 28.1751 173.036 28.1751ZM172.986 24.9751C173.752 24.9751 174.369 24.8084 174.836 24.4751C175.302 24.1418 175.636 23.7084 175.836 23.1751C176.052 22.6251 176.161 22.0501 176.161 21.4501C176.161 20.8501 176.052 20.2751 175.836 19.7251C175.636 19.1751 175.302 18.7251 174.836 18.3751C174.386 18.0084 173.769 17.8251 172.986 17.8251C172.236 17.8251 171.627 18.0084 171.161 18.3751C170.694 18.7251 170.352 19.1751 170.136 19.7251C169.936 20.2751 169.836 20.8501 169.836 21.4501C169.836 22.0668 169.936 22.6418 170.136 23.1751C170.352 23.7084 170.694 24.1418 171.161 24.4751C171.627 24.8084 172.236 24.9751 172.986 24.9751Z" fill="url(#paint0_linear_531_12)"></path><path d="M160.611 28.0001V14.8251H164.111V28.0001H160.611ZM162.361 13.5001C161.711 13.5001 161.186 13.3084 160.786 12.9251C160.386 12.5251 160.186 12.0168 160.186 11.4001C160.186 10.7501 160.394 10.2251 160.811 9.8251C161.228 9.4251 161.753 9.2251 162.386 9.2251C162.969 9.2251 163.469 9.4251 163.886 9.8251C164.319 10.2084 164.536 10.7251 164.536 11.3751C164.536 12.0084 164.328 12.5251 163.911 12.9251C163.511 13.3084 162.994 13.5001 162.361 13.5001Z" fill="url(#paint1_linear_531_12)"></path><path d="M150.411 28.1751C149.078 28.1751 147.97 27.8751 147.086 27.2751C146.22 26.6584 145.57 25.8418 145.136 24.8251C144.703 23.7918 144.486 22.6501 144.486 21.4001C144.486 20.0834 144.72 18.9168 145.186 17.9001C145.653 16.8668 146.345 16.0584 147.261 15.4751C148.178 14.8918 149.32 14.6001 150.686 14.6001C151.153 14.6001 151.611 14.6584 152.061 14.7751C152.528 14.8751 152.953 15.0334 153.336 15.2501C153.736 15.4501 154.078 15.7168 154.361 16.0501V10.3001H157.861V28.0001H154.461L154.411 26.5251C154.111 26.9084 153.745 27.2251 153.311 27.4751C152.895 27.7084 152.445 27.8834 151.961 28.0001C151.478 28.1168 150.961 28.1751 150.411 28.1751ZM151.111 25.0251C151.861 25.0251 152.47 24.8501 152.936 24.5001C153.42 24.1501 153.778 23.7001 154.011 23.1501C154.245 22.6001 154.361 22.0084 154.361 21.3751C154.361 20.7251 154.245 20.1334 154.011 19.6001C153.795 19.0501 153.445 18.6168 152.961 18.3001C152.495 17.9668 151.878 17.8001 151.111 17.8001C150.345 17.8001 149.728 17.9751 149.261 18.3251C148.795 18.6751 148.461 19.1334 148.261 19.7001C148.078 20.2501 147.986 20.8418 147.986 21.4751C147.986 21.9418 148.036 22.3918 148.136 22.8251C148.253 23.2418 148.436 23.6168 148.686 23.9501C148.936 24.2834 149.261 24.5501 149.661 24.7501C150.061 24.9334 150.545 25.0251 151.111 25.0251Z" fill="url(#paint2_linear_531_12)"></path><path d="M136.337 28.1751C134.404 28.1751 132.912 27.6835 131.862 26.7001C130.829 25.7001 130.312 24.2001 130.312 22.2001V14.8251H133.812V21.9501C133.812 22.5501 133.895 23.0835 134.062 23.5501C134.245 24.0001 134.52 24.3585 134.887 24.6251C135.27 24.8918 135.762 25.0251 136.362 25.0251C137.012 25.0251 137.512 24.8835 137.862 24.6001C138.212 24.3168 138.454 23.9418 138.587 23.4751C138.72 22.9918 138.787 22.4835 138.787 21.9501V14.8251H142.262V22.2001C142.262 24.2835 141.737 25.8001 140.687 26.7501C139.654 27.7001 138.204 28.1751 136.337 28.1751Z" fill="url(#paint3_linear_531_12)"></path><path d="M125.19 28.1751C123.707 28.1751 122.607 27.7585 121.89 26.9251C121.19 26.0918 120.84 24.9501 120.84 23.5001V17.9501H118.865V14.8251H120.84V11.2751H124.34V14.8251H128.34V17.9501H124.34V22.7751C124.34 23.2085 124.39 23.5835 124.49 23.9001C124.607 24.2168 124.79 24.4668 125.04 24.6501C125.307 24.8168 125.665 24.9001 126.115 24.9001C126.515 24.9001 126.849 24.8418 127.115 24.7251C127.399 24.5918 127.632 24.4501 127.815 24.3001L128.915 27.0001C128.565 27.2835 128.174 27.5168 127.74 27.7001C127.324 27.8668 126.899 27.9835 126.465 28.0501C126.032 28.1335 125.607 28.1751 125.19 28.1751Z" fill="url(#paint4_linear_531_12)"></path><path d="M110.486 28.2001C109.253 28.2001 108.103 28.0084 107.036 27.6251C105.986 27.2418 105.103 26.6334 104.386 25.8001C103.686 24.9668 103.245 23.8918 103.061 22.5751H106.711C106.861 23.1418 107.136 23.6001 107.536 23.9501C107.936 24.2834 108.411 24.5251 108.961 24.6751C109.528 24.8251 110.12 24.9001 110.736 24.9001C111.203 24.9001 111.661 24.8418 112.111 24.7251C112.561 24.6084 112.928 24.4084 113.211 24.1251C113.511 23.8418 113.661 23.4584 113.661 22.9751C113.661 22.6084 113.578 22.3084 113.411 22.0751C113.261 21.8418 113.036 21.6584 112.736 21.5251C112.453 21.3751 112.103 21.2418 111.686 21.1251C111.336 21.0251 110.97 20.9418 110.586 20.8751C110.22 20.8084 109.853 20.7251 109.486 20.6251C109.136 20.5251 108.795 20.4084 108.461 20.2751C107.828 20.1084 107.22 19.9084 106.636 19.6751C106.053 19.4251 105.536 19.1168 105.086 18.7501C104.636 18.3668 104.278 17.8918 104.011 17.3251C103.761 16.7584 103.636 16.0751 103.636 15.2751C103.636 14.4084 103.778 13.6751 104.061 13.0751C104.361 12.4751 104.753 11.9834 105.236 11.6001C105.736 11.2001 106.286 10.8918 106.886 10.6751C107.503 10.4584 108.12 10.3084 108.736 10.2251C109.353 10.1418 109.936 10.1001 110.486 10.1001C111.636 10.1001 112.67 10.3001 113.586 10.7001C114.503 11.1001 115.253 11.7001 115.836 12.5001C116.42 13.3001 116.753 14.3084 116.836 15.5251H113.361C113.295 15.0251 113.111 14.6168 112.811 14.3001C112.511 13.9834 112.128 13.7501 111.661 13.6001C111.211 13.4501 110.703 13.3751 110.136 13.3751C109.77 13.3751 109.411 13.4084 109.061 13.4751C108.711 13.5418 108.395 13.6501 108.111 13.8001C107.845 13.9334 107.628 14.1168 107.461 14.3501C107.311 14.5834 107.236 14.8668 107.236 15.2001C107.236 15.5334 107.328 15.8251 107.511 16.0751C107.695 16.3084 107.961 16.5168 108.311 16.7001C108.678 16.8668 109.103 17.0251 109.586 17.1751C110.086 17.3418 110.611 17.4751 111.161 17.5751C111.711 17.6751 112.236 17.8084 112.736 17.9751C113.37 18.1418 113.961 18.3418 114.511 18.5751C115.061 18.7918 115.545 19.0751 115.961 19.4251C116.378 19.7584 116.703 20.1918 116.936 20.7251C117.17 21.2418 117.286 21.8834 117.286 22.6501C117.286 23.6668 117.095 24.5334 116.711 25.2501C116.345 25.9501 115.836 26.5168 115.186 26.9501C114.553 27.3834 113.828 27.7001 113.011 27.9001C112.195 28.1001 111.353 28.2001 110.486 28.2001Z" fill="url(#paint5_linear_531_12)"></path><path d="M93.2775 28.1751C92.6775 28.1751 92.0941 28.1001 91.5275 27.9501C90.9775 27.7835 90.4858 27.5335 90.0525 27.2001C89.6191 26.8668 89.2775 26.4501 89.0275 25.9501C88.7775 25.4501 88.6525 24.8668 88.6525 24.2001C88.6525 23.3001 88.8358 22.5835 89.2025 22.0501C89.5691 21.5001 90.0608 21.0835 90.6775 20.8001C91.2941 20.5168 92.0025 20.3251 92.8025 20.2251C93.6191 20.1251 94.4608 20.0751 95.3275 20.0751H97.2275C97.2275 19.5918 97.1358 19.1668 96.9525 18.8001C96.7858 18.4168 96.5275 18.1251 96.1775 17.9251C95.8275 17.7085 95.3775 17.6001 94.8275 17.6001C94.4775 17.6001 94.1358 17.6501 93.8025 17.7501C93.4858 17.8335 93.2191 17.9585 93.0025 18.1251C92.7858 18.2918 92.6441 18.5085 92.5775 18.7751H89.0275C89.1275 18.0418 89.3608 17.4168 89.7275 16.9001C90.0941 16.3668 90.5525 15.9335 91.1025 15.6001C91.6525 15.2668 92.2525 15.0251 92.9025 14.8751C93.5691 14.7085 94.2525 14.6251 94.9525 14.6251C96.8691 14.6251 98.2858 15.1751 99.2025 16.2751C100.119 17.3585 100.577 18.9001 100.577 20.9001V28.0001H97.4275L97.3775 26.3001C96.9608 26.8835 96.4858 27.3085 95.9525 27.5751C95.4358 27.8418 94.9358 28.0085 94.4525 28.0751C93.9691 28.1418 93.5775 28.1751 93.2775 28.1751ZM94.0775 25.4001C94.6608 25.4001 95.1941 25.2835 95.6775 25.0501C96.1608 24.8168 96.5441 24.5001 96.8275 24.1001C97.1108 23.7001 97.2525 23.2501 97.2525 22.7501V22.4251H94.8525C94.5025 22.4251 94.1608 22.4418 93.8275 22.4751C93.5108 22.5085 93.2191 22.5751 92.9525 22.6751C92.7025 22.7585 92.5025 22.9001 92.3525 23.1001C92.2025 23.3001 92.1275 23.5668 92.1275 23.9001C92.1275 24.2335 92.2108 24.5168 92.3775 24.7501C92.5608 24.9668 92.8025 25.1335 93.1025 25.2501C93.4025 25.3501 93.7275 25.4001 94.0775 25.4001Z" fill="url(#paint6_linear_531_12)"></path><path d="M79.5221 34.0751C78.5055 34.0751 77.5138 33.9418 76.5471 33.6751C75.5805 33.4085 74.6721 32.9585 73.8221 32.3251L74.9971 29.5251C75.5304 29.9251 76.1388 30.2418 76.8221 30.4751C77.5055 30.7251 78.2638 30.8501 79.0971 30.8501C80.3805 30.8501 81.3305 30.5501 81.9471 29.9501C82.5805 29.3501 82.8971 28.4835 82.8971 27.3501V26.6501C82.6138 27.0335 82.2555 27.3418 81.8221 27.5751C81.4055 27.7918 80.9555 27.9501 80.4721 28.0501C79.9888 28.1501 79.5055 28.2001 79.0221 28.2001C77.7555 28.2001 76.7388 27.9335 75.9721 27.4001C75.2055 26.8668 74.6471 26.1418 74.2971 25.2251C73.9638 24.2918 73.7971 23.2335 73.7971 22.0501V14.8251H77.2971V21.3251C77.2971 21.7585 77.3221 22.1918 77.3721 22.6251C77.4221 23.0585 77.5388 23.4585 77.7221 23.8251C77.9055 24.1918 78.1805 24.4918 78.5471 24.7251C78.9138 24.9418 79.4055 25.0501 80.0221 25.0501C80.8221 25.0501 81.4221 24.8585 81.8221 24.4751C82.2221 24.0751 82.4888 23.5751 82.6221 22.9751C82.7721 22.3751 82.8471 21.7501 82.8471 21.1001V14.8251H86.3471V26.1001C86.3471 27.3001 86.2305 28.3918 85.9971 29.3751C85.7805 30.3585 85.4054 31.2001 84.8721 31.9001C84.3554 32.6001 83.6555 33.1335 82.7721 33.5001C81.9055 33.8835 80.8221 34.0751 79.5221 34.0751Z" fill="url(#paint7_linear_531_12)"></path><path d="M67.4227 28.0001V14.8251H70.9227V28.0001H67.4227ZM69.1727 13.5001C68.5227 13.5001 67.9977 13.3084 67.5977 12.9251C67.1977 12.5251 66.9977 12.0168 66.9977 11.4001C66.9977 10.7501 67.206 10.2251 67.6227 9.8251C68.0393 9.4251 68.5643 9.2251 69.1977 9.2251C69.781 9.2251 70.281 9.4251 70.6977 9.8251C71.131 10.2084 71.3477 10.7251 71.3477 11.3751C71.3477 12.0084 71.1393 12.5251 70.7227 12.9251C70.3227 13.3084 69.806 13.5001 69.1727 13.5001Z" fill="url(#paint8_linear_531_12)"></path><path d="M61.1483 28.0001V10.3001H64.6483V28.0001H61.1483Z" fill="url(#paint9_linear_531_12)"></path><path d="M42.0249 28.0001L48.9249 10.3001H52.9249L59.7499 28.0001H55.8999L54.7999 24.9751H46.9749L45.8749 28.0001H42.0249ZM48.1249 21.7501H53.6749L50.9249 14.1001L48.1249 21.7501Z" fill="url(#paint10_linear_531_12)"></path><path fill-rule="evenodd" clip-rule="evenodd" d="M19.8058 23.1573C14.9825 25.767 14.2835 25.534 14.435 20.0583C14.5864 14.5825 15.1456 14.0816 19.8175 16.9592C24.4777 19.8252 24.6291 20.5592 19.8058 23.1573ZM18 32.3262C19.5612 32.3262 20.8311 33.5961 20.8311 35.1573C20.8311 36.7184 19.5612 37.9883 18 37.9883C16.4388 37.9883 15.1689 36.7184 15.1689 35.1573C15.1573 33.5961 16.4272 32.3262 18 32.3262ZM18 2C19.5612 2 20.8311 3.2699 20.8311 4.83107C20.8311 6.39223 19.5612 7.66214 18 7.66214C16.4388 7.66214 15.1689 6.39223 15.1689 4.83107C15.1573 3.2699 16.4272 2 18 2ZM9.27379 28.7146C10.3806 29.8214 10.3806 31.6155 9.27379 32.7223C8.16699 33.8291 6.37282 33.8291 5.26602 32.7223C4.15922 31.6155 4.15922 29.8214 5.26602 28.7146C6.37282 27.6078 8.17864 27.6078 9.27379 28.7146ZM30.7223 7.26602C31.8291 8.37282 31.8291 10.167 30.7223 11.2738C29.6155 12.3806 27.8214 12.3806 26.7146 11.2738C25.6078 10.167 25.6078 8.37282 26.7146 7.26602C27.8214 6.17087 29.6155 6.17087 30.7223 7.26602ZM5.67379 20C5.67379 21.5612 4.40388 22.8311 2.84272 22.8311C1.2699 22.8311 0 21.5612 0 20C0 18.4388 1.2699 17.1689 2.83107 17.1689C4.40388 17.1689 5.67379 18.4272 5.67379 20ZM36 20C36 21.5612 34.7301 22.8311 33.1689 22.8311C31.6078 22.8311 30.3379 21.5612 30.3379 20C30.3379 18.4388 31.6078 17.1689 33.1689 17.1689C34.7184 17.1689 36 18.4272 36 20ZM9.27379 11.2854C8.16699 12.3922 6.37282 12.3922 5.26602 11.2854C4.15922 10.1786 4.15922 8.38447 5.26602 7.27767C6.37282 6.17087 8.16699 6.17087 9.27379 7.27767C10.3922 8.38447 10.3922 10.1786 9.27379 11.2854ZM30.7223 32.7223C29.6155 33.8291 27.8214 33.8291 26.7146 32.7223C25.6078 31.6155 25.6078 29.8214 26.7146 28.7146C27.8214 27.6078 29.6155 27.6078 30.7223 28.7146C31.8291 29.8214 31.8291 31.6155 30.7223 32.7223ZM18 9.78252C19.1417 9.78252 20.0854 11.0874 21.1689 10.2835C22.2408 9.47961 22.8583 6.81165 23.0097 5.72816C23.1495 4.64466 22.4854 4.83107 22.7534 4.15534C23.0214 3.49126 23.965 2.99029 24.7456 3.30485C25.5262 3.61942 25.8641 4.63301 25.5961 5.29709C25.3282 5.96116 24.967 5.36699 24.3262 6.25243C23.6738 7.13786 21.5534 9.11845 22.4854 10.8078C23.4291 12.4971 25.433 14.4544 27.134 15.3631C28.835 16.2718 30.7922 14.1049 31.6544 13.4408C32.5282 12.7767 31.9223 12.4272 32.5864 12.1476C33.2505 11.868 34.2641 12.1825 34.5903 12.9515C34.9165 13.732 34.4388 14.6757 33.7864 14.9553C33.1223 15.235 33.2971 14.5709 32.2136 14.734C31.1301 14.8971 28.4621 15.5146 27.6932 16.6563C26.9243 17.7981 28.2524 18.8583 28.2524 20C28.2524 21.1417 26.9476 22.0854 27.7515 23.1573C28.5553 24.2291 31.2233 24.8583 32.3068 24.9981C33.3903 25.1379 33.2039 24.4738 33.8796 24.7417C34.5437 25.0097 35.0447 25.9417 34.7301 26.734C34.4155 27.5146 33.4019 27.8524 32.7379 27.5845C32.0738 27.3165 32.668 26.9553 31.7942 26.3146C30.9087 25.6621 28.9282 23.5417 27.2388 24.4738C25.5495 25.4175 23.5922 27.4214 22.6835 29.1223C21.7748 30.8233 23.9417 32.7689 24.6058 33.6427C25.2699 34.5165 25.6194 33.9107 25.899 34.5748C26.1786 35.2388 25.8641 36.2524 25.0951 36.5786C24.3146 36.9049 23.3709 36.4272 23.0913 35.7748C22.8117 35.1107 23.4874 35.2854 23.3243 34.2019C23.1612 33.1184 22.5437 30.4505 21.4019 29.6816C20.2602 28.9126 19.2 30.2408 18.0583 30.2408C16.9165 30.2408 15.9728 28.9359 14.901 29.7398C13.8291 30.5437 13.2 33.2117 13.0602 34.2951C12.9204 35.3786 13.5845 35.1922 13.3165 35.868C13.0485 36.532 12.1165 37.033 11.3243 36.7184C10.5437 36.4039 10.2058 35.3903 10.4738 34.7262C10.7417 34.0621 11.1029 34.6563 11.7437 33.7709C12.3961 32.8854 14.5165 30.9049 13.5845 29.2155C12.6408 27.5262 10.6485 25.5689 8.93592 24.6602C7.23495 23.7515 5.28932 25.9184 4.41553 26.5825C3.5534 27.2466 4.14757 27.5961 3.49515 27.8757C2.83107 28.1553 1.81748 27.8408 1.49126 27.0718C1.16505 26.2913 1.64272 25.3476 2.29515 25.068C2.95922 24.7883 2.78447 25.4641 3.86796 25.301C4.95146 25.1379 7.61942 24.5204 8.38835 23.3786C9.15728 22.2369 7.82913 21.1767 7.82913 20.035C7.82913 18.8932 9.13398 17.9495 8.3301 16.866C7.52621 15.7825 4.85825 15.1767 3.77476 15.0252C2.69126 14.8854 2.87767 15.5495 2.20194 15.2816C1.53786 15.0136 1.03689 14.0699 1.35146 13.2893C1.66602 12.5087 2.67961 12.1709 3.34369 12.4388C4.00777 12.7068 3.41359 13.068 4.29903 13.7087C5.18447 14.3612 7.16505 16.4816 8.85437 15.5495C10.5437 14.6058 12.5126 12.6019 13.4097 10.901C14.3184 9.2 12.1515 7.24272 11.4874 6.38058C10.8233 5.51845 10.4738 6.11262 10.1942 5.46019C9.91456 4.79612 10.2291 3.78252 10.9981 3.45631C11.7786 3.1301 12.7223 3.60777 13.0019 4.26019C13.2816 4.92427 12.6175 4.74951 12.7689 5.83301C12.932 6.91651 13.5495 9.58447 14.6913 10.3534C15.7864 11.1107 16.8583 9.78252 18 9.78252Z" fill="url(#paint11_linear_531_12)"></path><defs><linearGradient id="paint0_linear_531_12" x1="42.0249" y1="9.2251" x2="50.7179" y2="57.3551" gradientUnits="userSpaceOnUse"><stop stop-color="#02CE80"></stop><stop offset="1" stop-color="#7BD706"></stop></linearGradient><linearGradient id="paint1_linear_531_12" x1="42.0249" y1="9.2251" x2="50.7179" y2="57.3551" gradientUnits="userSpaceOnUse"><stop stop-color="#02CE80"></stop><stop offset="1" stop-color="#7BD706"></stop></linearGradient><linearGradient id="paint2_linear_531_12" x1="42.0249" y1="9.2251" x2="50.7179" y2="57.3551" gradientUnits="userSpaceOnUse"><stop stop-color="#02CE80"></stop><stop offset="1" stop-color="#7BD706"></stop></linearGradient><linearGradient id="paint3_linear_531_12" x1="42.0249" y1="9.2251" x2="50.7179" y2="57.3551" gradientUnits="userSpaceOnUse"><stop stop-color="#02CE80"></stop><stop offset="1" stop-color="#7BD706"></stop></linearGradient><linearGradient id="paint4_linear_531_12" x1="42.0249" y1="9.2251" x2="50.7179" y2="57.3551" gradientUnits="userSpaceOnUse"><stop stop-color="#02CE80"></stop><stop offset="1" stop-color="#7BD706"></stop></linearGradient><linearGradient id="paint5_linear_531_12" x1="42.0249" y1="9.2251" x2="50.7179" y2="57.3551" gradientUnits="userSpaceOnUse"><stop stop-color="#02CE80"></stop><stop offset="1" stop-color="#7BD706"></stop></linearGradient><linearGradient id="paint6_linear_531_12" x1="42.0249" y1="9.2251" x2="50.7179" y2="57.3551" gradientUnits="userSpaceOnUse"><stop stop-color="#02CE80"></stop><stop offset="1" stop-color="#7BD706"></stop></linearGradient><linearGradient id="paint7_linear_531_12" x1="42.0249" y1="9.2251" x2="50.7179" y2="57.3551" gradientUnits="userSpaceOnUse"><stop stop-color="#02CE80"></stop><stop offset="1" stop-color="#7BD706"></stop></linearGradient><linearGradient id="paint8_linear_531_12" x1="42.0249" y1="9.2251" x2="50.7179" y2="57.3551" gradientUnits="userSpaceOnUse"><stop stop-color="#02CE80"></stop><stop offset="1" stop-color="#7BD706"></stop></linearGradient><linearGradient id="paint9_linear_531_12" x1="42.0249" y1="9.2251" x2="50.7179" y2="57.3551" gradientUnits="userSpaceOnUse"><stop stop-color="#02CE80"></stop><stop offset="1" stop-color="#7BD706"></stop></linearGradient><linearGradient id="paint10_linear_531_12" x1="42.0249" y1="9.2251" x2="50.7179" y2="57.3551" gradientUnits="userSpaceOnUse"><stop stop-color="#02CE80"></stop><stop offset="1" stop-color="#7BD706"></stop></linearGradient><linearGradient id="paint11_linear_531_12" x1="0" y1="2" x2="35.9883" y2="38" gradientUnits="userSpaceOnUse"><stop stop-color="#02CE80"></stop><stop offset="1" stop-color="#7BD706"></stop></linearGradient></defs></svg>