<svg xmlns="http://www.w3.org/2000/svg" width="160" height="40" viewBox="0 0 160 40" fill="none"><path d="M152.452 29.9476C151.069 29.9476 149.894 29.6726 148.927 29.1226C147.96 28.5726 147.219 27.7976 146.702 26.7976C146.185 25.7809 145.927 24.5976 145.927 23.2476C145.927 21.8809 146.194 20.6892 146.727 19.6726C147.26 18.6392 148.01 17.8309 148.977 17.2476C149.96 16.6642 151.119 16.3726 152.452 16.3726C153.452 16.3726 154.327 16.5392 155.077 16.8726C155.844 17.2059 156.485 17.6726 157.002 18.2726C157.535 18.8726 157.927 19.5726 158.177 20.3726C158.444 21.1559 158.569 22.0059 158.552 22.9226C158.552 23.1559 158.544 23.3809 158.527 23.5976C158.51 23.8142 158.477 24.0309 158.427 24.2476H149.402C149.452 24.7476 149.594 25.2059 149.827 25.6226C150.06 26.0392 150.385 26.3726 150.802 26.6226C151.235 26.8559 151.769 26.9726 152.402 26.9726C152.819 26.9726 153.202 26.9309 153.552 26.8476C153.902 26.7476 154.202 26.5976 154.452 26.3976C154.702 26.1976 154.877 25.9642 154.977 25.6976H158.427C158.21 26.6809 157.802 27.4892 157.202 28.1226C156.619 28.7559 155.91 29.2226 155.077 29.5226C154.244 29.8059 153.369 29.9476 152.452 29.9476ZM149.477 21.7976H155.202C155.185 21.3476 155.069 20.9309 154.852 20.5476C154.652 20.1476 154.344 19.8309 153.927 19.5976C153.527 19.3476 153.01 19.2226 152.377 19.2226C151.744 19.2226 151.21 19.3476 150.777 19.5976C150.36 19.8476 150.044 20.1726 149.827 20.5726C149.627 20.9559 149.51 21.3642 149.477 21.7976Z" fill="url(#paint0_linear_531_27)"></path><path d="M131.29 29.7726V12.0726H134.79V18.1226C135.174 17.6726 135.599 17.3226 136.065 17.0726C136.549 16.8226 137.032 16.6476 137.515 16.5476C138.015 16.4309 138.474 16.3726 138.89 16.3726C140.124 16.3726 141.09 16.6476 141.79 17.1976C142.49 17.7476 142.99 18.4892 143.29 19.4226C143.59 20.3559 143.74 21.3809 143.74 22.4976V29.7726H140.24V22.9976C140.24 22.5976 140.199 22.1976 140.115 21.7976C140.049 21.3976 139.924 21.0309 139.74 20.6976C139.557 20.3476 139.299 20.0726 138.965 19.8726C138.632 19.6559 138.19 19.5476 137.64 19.5476C137.124 19.5476 136.682 19.6559 136.315 19.8726C135.949 20.0892 135.649 20.3809 135.415 20.7476C135.199 21.0976 135.04 21.4892 134.94 21.9226C134.84 22.3559 134.79 22.7892 134.79 23.2226V29.7726H131.29Z" fill="url(#paint1_linear_531_27)"></path><path d="M123.152 29.9476C121.802 29.9476 120.644 29.6726 119.677 29.1226C118.727 28.5726 118.002 27.7976 117.502 26.7976C117.002 25.7809 116.752 24.5892 116.752 23.2226C116.752 21.8392 117.011 20.6392 117.527 19.6226C118.044 18.5892 118.786 17.7892 119.752 17.2226C120.736 16.6559 121.919 16.3726 123.302 16.3726C124.369 16.3726 125.319 16.5642 126.152 16.9476C126.986 17.3309 127.652 17.8809 128.152 18.5976C128.669 19.3142 128.969 20.1976 129.052 21.2476H125.627C125.477 20.6642 125.186 20.2392 124.752 19.9726C124.336 19.7059 123.836 19.5726 123.252 19.5726C122.502 19.5726 121.902 19.7559 121.452 20.1226C121.019 20.4892 120.702 20.9559 120.502 21.5226C120.319 22.0892 120.227 22.6559 120.227 23.2226C120.227 23.8392 120.327 24.4226 120.527 24.9726C120.727 25.5059 121.044 25.9476 121.477 26.2976C121.927 26.6309 122.511 26.7976 123.227 26.7976C123.827 26.7976 124.352 26.6642 124.802 26.3976C125.252 26.1142 125.544 25.6809 125.677 25.0976H129.177C129.094 26.1809 128.769 27.0809 128.202 27.7976C127.636 28.5142 126.911 29.0559 126.027 29.4226C125.161 29.7726 124.202 29.9476 123.152 29.9476Z" fill="url(#paint2_linear_531_27)"></path><path d="M109.341 29.9476C108.724 29.9476 108.091 29.8809 107.441 29.7476C106.791 29.6142 106.191 29.3892 105.641 29.0726C105.091 28.7392 104.624 28.2976 104.241 27.7476C103.857 27.1809 103.607 26.4809 103.491 25.6476H107.041C107.141 25.9476 107.316 26.2059 107.566 26.4226C107.832 26.6392 108.132 26.7976 108.466 26.8976C108.816 26.9976 109.166 27.0476 109.516 27.0476C109.749 27.0476 109.982 27.0309 110.216 26.9976C110.449 26.9642 110.666 26.8976 110.866 26.7976C111.066 26.6976 111.224 26.5726 111.341 26.4226C111.457 26.2559 111.516 26.0476 111.516 25.7976C111.516 25.5309 111.432 25.3226 111.266 25.1726C111.099 25.0226 110.866 24.9059 110.566 24.8226C110.266 24.7226 109.924 24.6309 109.541 24.5476C108.857 24.3976 108.124 24.2309 107.341 24.0476C106.557 23.8642 105.882 23.5976 105.316 23.2476C105.082 23.0809 104.874 22.8976 104.691 22.6976C104.507 22.4976 104.357 22.2726 104.241 22.0226C104.124 21.7726 104.032 21.5142 103.966 21.2476C103.899 20.9642 103.866 20.6642 103.866 20.3476C103.866 19.6309 104.016 19.0226 104.316 18.5226C104.632 18.0059 105.049 17.5892 105.566 17.2726C106.082 16.9559 106.657 16.7309 107.291 16.5976C107.924 16.4476 108.574 16.3726 109.241 16.3726C110.141 16.3726 110.974 16.5226 111.741 16.8226C112.507 17.1059 113.141 17.5559 113.641 18.1726C114.141 18.7726 114.449 19.5559 114.566 20.5226H111.216C111.149 20.1559 110.924 19.8642 110.541 19.6476C110.157 19.4142 109.682 19.2976 109.116 19.2976C108.916 19.2976 108.699 19.3142 108.466 19.3476C108.249 19.3809 108.049 19.4392 107.866 19.5226C107.682 19.6059 107.532 19.7226 107.416 19.8726C107.299 20.0059 107.241 20.1892 107.241 20.4226C107.241 20.6059 107.291 20.7726 107.391 20.9226C107.507 21.0726 107.666 21.1976 107.866 21.2976C108.082 21.3976 108.341 21.4892 108.641 21.5726C109.207 21.7059 109.774 21.8309 110.341 21.9476C110.924 22.0476 111.441 22.1559 111.891 22.2726C112.441 22.3892 112.941 22.5809 113.391 22.8476C113.857 23.1142 114.232 23.4809 114.516 23.9476C114.816 24.3976 114.966 24.9892 114.966 25.7226C114.966 26.5559 114.799 27.2476 114.466 27.7976C114.132 28.3309 113.682 28.7559 113.116 29.0726C112.566 29.3892 111.957 29.6142 111.291 29.7476C110.641 29.8809 109.991 29.9476 109.341 29.9476Z" fill="url(#paint3_linear_531_27)"></path><path d="M90.9465 29.7726V27.1226L97.4465 19.7226H90.9465V16.5976H101.947V19.2226L95.4215 26.6476H101.947V29.7726H90.9465Z" fill="url(#paint4_linear_531_27)"></path><path d="M88.2663 29.7726C87.1663 29.7726 86.2413 29.6392 85.4913 29.3726C84.758 29.1059 84.1996 28.6559 83.8163 28.0226C83.4496 27.3726 83.2663 26.4892 83.2663 25.3726V19.7226H81.3163V16.5976H83.2663V13.0726H86.7663V16.5976H89.6413V19.7226H86.7663V24.8726C86.7663 25.4226 86.8663 25.8559 87.0663 26.1726C87.2663 26.4892 87.7163 26.6476 88.4163 26.6476H89.5163V29.7726H88.2663Z" fill="url(#paint5_linear_531_27)"></path><path d="M73.9364 29.9476C72.553 29.9476 71.378 29.6726 70.4114 29.1226C69.4447 28.5726 68.703 27.7976 68.1864 26.7976C67.6697 25.7809 67.4114 24.5976 67.4114 23.2476C67.4114 21.8809 67.678 20.6892 68.2114 19.6726C68.7447 18.6392 69.4947 17.8309 70.4614 17.2476C71.4447 16.6642 72.603 16.3726 73.9364 16.3726C74.9364 16.3726 75.8114 16.5392 76.5614 16.8726C77.328 17.2059 77.9697 17.6726 78.4864 18.2726C79.0197 18.8726 79.4114 19.5726 79.6614 20.3726C79.928 21.1559 80.053 22.0059 80.0364 22.9226C80.0364 23.1559 80.028 23.3809 80.0114 23.5976C79.9947 23.8142 79.9614 24.0309 79.9114 24.2476H70.8864C70.9364 24.7476 71.078 25.2059 71.3114 25.6226C71.5447 26.0392 71.8697 26.3726 72.2864 26.6226C72.7197 26.8559 73.253 26.9726 73.8864 26.9726C74.303 26.9726 74.6864 26.9309 75.0364 26.8476C75.3864 26.7476 75.6864 26.5976 75.9364 26.3976C76.1864 26.1976 76.3614 25.9642 76.4614 25.6976H79.9114C79.6947 26.6809 79.2864 27.4892 78.6864 28.1226C78.103 28.7559 77.3947 29.2226 76.5614 29.5226C75.728 29.8059 74.853 29.9476 73.9364 29.9476ZM70.9614 21.7976H76.6864C76.6697 21.3476 76.553 20.9309 76.3364 20.5476C76.1364 20.1476 75.828 19.8309 75.4114 19.5976C75.0114 19.3476 74.4947 19.2226 73.8614 19.2226C73.228 19.2226 72.6947 19.3476 72.2614 19.5976C71.8447 19.8476 71.528 20.1726 71.3114 20.5726C71.1114 20.9559 70.9947 21.3642 70.9614 21.7976Z" fill="url(#paint6_linear_531_27)"></path><path d="M61.6369 29.7726V16.5976H65.1369V29.7726H61.6369ZM63.3869 15.2726C62.7369 15.2726 62.2119 15.0809 61.8119 14.6976C61.4119 14.2976 61.2119 13.7892 61.2119 13.1726C61.2119 12.5226 61.4202 11.9976 61.8369 11.5976C62.2536 11.1976 62.7786 10.9976 63.4119 10.9976C63.9952 10.9976 64.4952 11.1976 64.9119 11.5976C65.3452 11.9809 65.5619 12.4976 65.5619 13.1476C65.5619 13.7809 65.3536 14.2976 64.9369 14.6976C64.5369 15.0809 64.0202 15.2726 63.3869 15.2726Z" fill="url(#paint7_linear_531_27)"></path><path d="M42.9963 29.7726V12.0726H46.6463L54.8213 24.0476V12.0726H58.3963V29.7726H54.8463L46.5713 17.9226V29.7726H42.9963Z" fill="url(#paint8_linear_531_27)"></path><path d="M32.4523 28.6458C32.3946 28.6458 26.1049 27.9891 21.4425 20.8834C20.9751 20.2266 20.1038 19.99 19.4056 20.4633C18.7651 20.9425 18.5342 21.8359 18.9959 22.5518C24.4142 30.8586 31.8695 31.5745 32.158 31.6337C32.2157 31.6337 32.2157 31.6337 32.2734 31.6337C33.0293 31.6337 33.6698 31.0361 33.7275 30.2611C33.8487 29.4268 33.2082 28.705 32.4523 28.6458Z" fill="url(#paint9_linear_531_27)"></path><path d="M25.9837 32.4088C25.9837 32.4088 24.5873 31.8704 23.012 30.4977C20.9174 28.705 19.3998 26.3798 18.5285 23.6286C18.2977 22.8536 17.4783 22.4335 16.7224 22.6701C15.9664 22.9068 15.5567 23.747 15.7876 24.522C18.2919 32.6454 24.7547 35.0949 25.0489 35.2132C25.2221 35.2724 25.4009 35.2724 25.5163 35.2724C26.0991 35.2724 26.682 34.9115 26.9128 34.2547C27.1493 33.5447 26.7397 32.7105 25.9837 32.4088Z" fill="url(#paint10_linear_531_27)"></path><path d="M19.9884 34.3198C19.9884 34.3198 18.5919 33.3022 17.2532 31.5745C15.5625 29.4268 14.922 27.3915 15.2163 25.4213C15.3317 24.5871 14.8066 23.8712 13.993 23.6878C13.1794 23.5695 12.4812 24.1079 12.3023 24.9421C11.3098 31.5095 17.9514 36.5267 18.2457 36.7042C18.4765 36.8817 18.7708 37 19.117 37C19.5844 37 19.9884 36.7633 20.2827 36.4024C20.7443 35.7516 20.6289 34.799 19.9884 34.3198Z" fill="url(#paint11_linear_531_27)"></path><path d="M22.083 18.7948C21.731 19.5107 22.0253 20.4041 22.7235 20.765C22.9543 20.8834 23.1332 20.9425 23.364 20.9425C23.8891 20.9425 24.4142 20.6467 24.645 20.1083C28.9555 11.1506 25.8683 4.16322 25.6952 3.86739C25.3432 3.09233 24.4719 2.79058 23.7737 3.15149C23.0178 3.5124 22.7235 4.4058 23.0755 5.1217C23.1909 5.24003 25.7529 11.0915 22.083 18.7948Z" fill="url(#paint12_linear_531_27)"></path><path d="M25.5163 20.765C24.9912 21.3626 24.9912 22.3152 25.6318 22.8536C25.9203 23.0902 26.2723 23.2736 26.6243 23.2736C27.0339 23.2736 27.4379 23.0961 27.6745 22.7944C33.2659 16.5229 32.1003 9.53543 32.0426 9.23961C31.9272 8.40538 31.1713 7.86697 30.3519 8.04447C29.5383 8.1628 29.0132 8.93786 29.1863 9.77801C29.1863 9.83718 30.1211 15.5703 25.5163 20.765Z" fill="url(#paint13_linear_531_27)"></path><path d="M34.6623 13.2984C33.8487 13.18 33.1447 13.7776 33.087 14.6118C33.087 14.6118 32.9139 16.4045 32.1522 18.3747C31.1597 20.9425 29.7633 22.5577 28.0149 23.2736C27.259 23.5695 26.907 24.4096 27.2013 25.1847C27.4321 25.7822 27.9572 26.1432 28.54 26.1432C28.7131 26.1432 28.892 26.084 29.0651 26.0248C35.124 23.6345 35.9953 15.2153 35.9953 14.8544C36.0587 14.0793 35.4759 13.3575 34.6623 13.2984Z" fill="url(#paint14_linear_531_27)"></path><path d="M17.5994 19.8716C18.3554 20.0491 19.1747 19.5758 19.3479 18.7948C19.521 18.0197 19.0593 17.1796 18.2977 17.0021C8.86315 14.4935 2.862 18.9723 2.57349 19.2149C1.93298 19.6941 1.81757 20.6467 2.28497 21.3034C2.57349 21.7235 2.98318 21.901 3.45058 21.901C3.73909 21.901 4.03338 21.7827 4.3219 21.6052C4.37383 21.5401 9.50366 17.7772 17.5994 19.8716Z" fill="url(#paint15_linear_531_27)"></path><path d="M7.52443 14.6118C7.52443 14.6118 8.92086 14.0734 10.9636 13.9551C13.6987 13.8368 16.3242 14.5527 18.7708 16.0436C19.0016 16.162 19.2382 16.2803 19.5267 16.2803C20.0518 16.2803 20.5192 16.0436 20.75 15.5644C21.1597 14.8485 20.9232 13.9551 20.2249 13.535C13.1217 9.17453 6.65311 11.7423 6.3646 11.8606C5.60868 12.1565 5.25669 13.0558 5.55098 13.8308C5.89143 14.5527 6.76275 14.9136 7.52443 14.6118Z" fill="url(#paint16_linear_531_27)"></path><path d="M11.3675 9.71885C11.3675 9.71885 13.1159 9.54135 15.1528 9.89634C17.7726 10.3756 19.6364 11.4524 20.6866 13.1209C20.9751 13.5409 21.4425 13.7776 21.9099 13.7776C22.1984 13.7776 22.435 13.7184 22.6658 13.5409C23.364 13.1209 23.5371 12.1683 23.1332 11.4524C19.6364 5.8376 11.4252 6.67183 11.0732 6.731C10.2596 6.79016 9.67677 7.56523 9.79218 8.34029C9.84988 9.23961 10.5481 9.77801 11.3675 9.71885Z" fill="url(#paint17_linear_531_27)"></path><defs><linearGradient id="paint0_linear_531_27" x1="42.9963" y1="10.9976" x2="49.0487" y2="47.905" gradientUnits="userSpaceOnUse"><stop stop-color="#02CE80"></stop><stop offset="1" stop-color="#7BD706"></stop></linearGradient><linearGradient id="paint1_linear_531_27" x1="42.9963" y1="10.9976" x2="49.0487" y2="47.905" gradientUnits="userSpaceOnUse"><stop stop-color="#02CE80"></stop><stop offset="1" stop-color="#7BD706"></stop></linearGradient><linearGradient id="paint2_linear_531_27" x1="42.9963" y1="10.9976" x2="49.0487" y2="47.905" gradientUnits="userSpaceOnUse"><stop stop-color="#02CE80"></stop><stop offset="1" stop-color="#7BD706"></stop></linearGradient><linearGradient id="paint3_linear_531_27" x1="42.9963" y1="10.9976" x2="49.0487" y2="47.905" gradientUnits="userSpaceOnUse"><stop stop-color="#02CE80"></stop><stop offset="1" stop-color="#7BD706"></stop></linearGradient><linearGradient id="paint4_linear_531_27" x1="42.9963" y1="10.9976" x2="49.0487" y2="47.905" gradientUnits="userSpaceOnUse"><stop stop-color="#02CE80"></stop><stop offset="1" stop-color="#7BD706"></stop></linearGradient><linearGradient id="paint5_linear_531_27" x1="42.9963" y1="10.9976" x2="49.0487" y2="47.905" gradientUnits="userSpaceOnUse"><stop stop-color="#02CE80"></stop><stop offset="1" stop-color="#7BD706"></stop></linearGradient><linearGradient id="paint6_linear_531_27" x1="42.9963" y1="10.9976" x2="49.0487" y2="47.905" gradientUnits="userSpaceOnUse"><stop stop-color="#02CE80"></stop><stop offset="1" stop-color="#7BD706"></stop></linearGradient><linearGradient id="paint7_linear_531_27" x1="42.9963" y1="10.9976" x2="49.0487" y2="47.905" gradientUnits="userSpaceOnUse"><stop stop-color="#02CE80"></stop><stop offset="1" stop-color="#7BD706"></stop></linearGradient><linearGradient id="paint8_linear_531_27" x1="42.9963" y1="10.9976" x2="49.0487" y2="47.905" gradientUnits="userSpaceOnUse"><stop stop-color="#02CE80"></stop><stop offset="1" stop-color="#7BD706"></stop></linearGradient><linearGradient id="paint9_linear_531_27" x1="2" y1="3" x2="36" y2="37" gradientUnits="userSpaceOnUse"><stop stop-color="#02CE80"></stop><stop offset="1" stop-color="#7BD706"></stop></linearGradient><linearGradient id="paint10_linear_531_27" x1="2" y1="3" x2="36" y2="37" gradientUnits="userSpaceOnUse"><stop stop-color="#02CE80"></stop><stop offset="1" stop-color="#7BD706"></stop></linearGradient><linearGradient id="paint11_linear_531_27" x1="2" y1="3" x2="36" y2="37" gradientUnits="userSpaceOnUse"><stop stop-color="#02CE80"></stop><stop offset="1" stop-color="#7BD706"></stop></linearGradient><linearGradient id="paint12_linear_531_27" x1="2" y1="3" x2="36" y2="37" gradientUnits="userSpaceOnUse"><stop stop-color="#02CE80"></stop><stop offset="1" stop-color="#7BD706"></stop></linearGradient><linearGradient id="paint13_linear_531_27" x1="2" y1="3" x2="36" y2="37" gradientUnits="userSpaceOnUse"><stop stop-color="#02CE80"></stop><stop offset="1" stop-color="#7BD706"></stop></linearGradient><linearGradient id="paint14_linear_531_27" x1="2" y1="3" x2="36" y2="37" gradientUnits="userSpaceOnUse"><stop stop-color="#02CE80"></stop><stop offset="1" stop-color="#7BD706"></stop></linearGradient><linearGradient id="paint15_linear_531_27" x1="2" y1="3" x2="36" y2="37" gradientUnits="userSpaceOnUse"><stop stop-color="#02CE80"></stop><stop offset="1" stop-color="#7BD706"></stop></linearGradient><linearGradient id="paint16_linear_531_27" x1="2" y1="3" x2="36" y2="37" gradientUnits="userSpaceOnUse"><stop stop-color="#02CE80"></stop><stop offset="1" stop-color="#7BD706"></stop></linearGradient><linearGradient id="paint17_linear_531_27" x1="2" y1="3" x2="36" y2="37" gradientUnits="userSpaceOnUse"><stop stop-color="#02CE80"></stop><stop offset="1" stop-color="#7BD706"></stop></linearGradient></defs></svg>